<?xml version="1.0" encoding="UTF-8"?>
<svg width="29px" height="27px" viewBox="0 0 29 27" version="1.1" xmlns="http://www.w3.org/2000/svg" xmlns:xlink="http://www.w3.org/1999/xlink">
    <title>dbproxy</title>
    <g id="页面-1" stroke="none" stroke-width="1" fill="none" fill-rule="evenodd">
        <path d="M14.9833333,0 C17.3823583,0 19.3333333,1.7342 19.3333333,3.86666667 C19.3333333,4.55008665 19.1329496,5.19260084 18.7816533,5.75023473 L22.5927175,9.56253722 C23.2467656,9.11953034 24.0319436,8.86111111 24.8755556,8.86111111 C27.1501867,8.86111111 29,10.7398278 29,13.05 C29,15.3601722 27.1501867,17.2388889 24.8755556,17.2388889 C24.5196683,17.2388889 24.1741804,17.1928988 23.8445496,17.1064617 L19.1741363,21.1950182 C19.2778661,21.5255309 19.3333333,21.8737706 19.3333333,22.2333333 C19.3333333,24.3658 17.3823583,26.1 14.9833333,26.1 C12.5843083,26.1 10.6333333,24.3658 10.6333333,22.2333333 C10.6333333,22.1255196 10.6383203,22.0187239 10.6481,21.9131189 L5.36874272,17.2929812 C5.04186843,17.3629357 4.70072221,17.4 4.35,17.4 C1.950975,17.4 0,15.6658 0,13.5333333 C0,11.4008667 1.950975,9.66666667 4.35,9.66666667 C4.93776886,9.66666667 5.49864281,9.77076476 6.01051877,9.95931377 L10.86221,5.10559842 C10.7138237,4.71651556 10.6333333,4.29980665 10.6333333,3.86666667 C10.6333333,1.7342 12.5843083,0 14.9833333,0 Z M14.9833333,20.3 C13.7838208,20.3 12.8083333,21.1671 12.8083333,22.2333333 C12.8083333,23.2995667 13.7838208,24.1666667 14.9833333,24.1666667 C16.1828458,24.1666667 17.1583333,23.2995667 17.1583333,22.2333333 C17.1583333,21.8673379 17.043394,21.5248058 16.8439087,21.2327534 L16.4333333,20.875583 L16.4824585,20.8336965 C16.0920466,20.5031481 15.5639327,20.3 14.9833333,20.3 Z M12.0839131,6.74708405 L7.72940853,11.1009278 C8.33611582,11.7657074 8.7,12.6123792 8.7,13.5333333 C8.7,14.6278098 8.18607467,15.6173749 7.36141749,16.3214123 L11.4888437,19.9326972 C12.0002797,19.3204402 12.7102719,18.8467179 13.5334828,18.5873859 L13.5334828,7.51261414 C12.9935649,7.3425265 12.5023496,7.08021608 12.0839131,6.74708405 Z M15.5955476,7.69518323 L15.5955476,18.4048168 C16.5375896,18.5232154 17.3834835,18.9107517 18.0313167,19.476837 L21.9747524,16.0253186 C21.2195163,15.2657387 20.7511111,14.2124954 20.7511111,13.05 C20.7511111,12.3352099 20.928202,11.6617249 21.2401738,11.0724147 L17.3039499,7.13615575 C16.7957209,7.42214568 16.2165234,7.61713719 15.5955476,7.69518323 Z M4.35,11.6 C3.1504875,11.6 2.175,12.4671 2.175,13.5333333 C2.175,14.5986 3.1504875,15.4666667 4.35,15.4666667 C5.5495125,15.4666667 6.525,14.5995667 6.525,13.5333333 C6.525,12.4671 5.5495125,11.6 4.35,11.6 Z M24.8755556,10.9555556 C23.73824,10.9555556 22.8133333,11.8949139 22.8133333,13.05 C22.8133333,14.2040389 23.73824,15.1444444 24.8755556,15.1444444 C26.0128711,15.1444444 26.9377778,14.2050861 26.9377778,13.05 C26.9377778,11.8949139 26.0128711,10.9555556 24.8755556,10.9555556 Z M14.9833333,1.93333333 C13.7838208,1.93333333 12.8083333,2.80043333 12.8083333,3.86666667 C12.8083333,4.9329 13.7838208,5.8 14.9833333,5.8 C16.1828458,5.8 17.1583333,4.9329 17.1583333,3.86666667 C17.1583333,2.80043333 16.1828458,1.93333333 14.9833333,1.93333333 Z" id="dbproxy" fill="#54FCE2" fill-rule="nonzero"></path>
    </g>
</svg>