<?xml version="1.0" encoding="UTF-8"?>
<svg width="25px" height="23px" viewBox="0 0 25 23" version="1.1" xmlns="http://www.w3.org/2000/svg" xmlns:xlink="http://www.w3.org/1999/xlink">
    <title>es备份</title>
    <g id="甘恒旭图标优化" stroke="none" stroke-width="1" fill="none" fill-rule="evenodd">
        <path d="M9.67003585,10.8161764 L15.1015063,13.4303285 L16.0976289,15.66077 C16.1707623,16.2669697 15.8387214,17.8331961 15.1015063,20.3594493 C9.16917712,24.0811254 5.59078607,22.514899 4.36633314,15.66077 L4.36633314,15.66077 L9.67003585,10.8161764 Z M16.8492652,17.4297369 C19.2100638,18.0597692 20.390463,18.3747853 20.390463,18.3747853 C21.1160847,21.9757052 17.823041,22.3379356 16.2560823,21.7128667 C16.2560823,21.38649 16.4538099,19.95878 16.8492652,17.4297369 Z M22.0774848,8.99832457 C25.861144,12.1530288 25.861144,14.7639146 22.0774848,16.8309818 C20.3498827,16.4900684 18.9057707,16.1505609 17.7451489,15.8124592 L16.8591695,13.7957955 L22.0774848,8.99832457 Z M3.69691387,5.99832457 C5.42451604,6.339238 6.868628,6.67874554 8.02924976,7.0168472 L8.91522924,9.03351092 L3.69691387,13.8309818 C-0.0867453296,10.6762776 -0.0867453296,8.06539183 3.69691387,5.99832457 Z M10.3723562,2.78068971 C16.3046853,-0.940986464 19.8830763,0.625239957 21.1075293,7.47936897 L21.1075293,7.47936897 L15.8038266,12.3239626 L10.3723562,9.70981045 L9.37623349,7.47936897 C9.30310014,6.87316932 9.63514103,5.3069429 10.3723562,2.78068971 Z M5.35904641,5.01636521 C4.63342477,1.41544538 7.92646844,1.05321495 9.49342715,1.67828382 C9.49342715,2.00466059 9.29569952,3.43237052 8.90024425,5.96141364 C6.53944569,5.33138135 5.35904641,5.01636521 5.35904641,5.01636521 Z" id="es备份" fill="#55FDE2"></path>
    </g>
</svg>