<?xml version="1.0" encoding="UTF-8"?>
<svg width="27px" height="20px" viewBox="0 0 27 20" version="1.1" xmlns="http://www.w3.org/2000/svg" xmlns:xlink="http://www.w3.org/1999/xlink">
    <title>hadoop</title>
    <g id="页面-1" stroke="none" stroke-width="1" fill="none" fill-rule="evenodd">
        <path d="M14.1625,0 L14.1625,0 C14.1625,0 14.1625,0 14.1625,0 C14.325,0 14.325,0 14.325,0.160317111 C14.325,0.160317111 14.325,0.320634222 14.1625,0.320634222 C13.1875,0.801585554 12.8625,1.12221978 12.375,2.08412244 C12.375,2.08412244 12.2125,2.24443955 12.2125,2.24443955 C12.05,2.24443955 12.05,2.24443955 12.05,2.08412244 C12.05,2.08412244 12.05,2.08412244 12.05,2.08412244 C12.05,1.76348822 12.2125,1.442854 12.375,1.28253689 C12.375,1.28253689 12.375,1.28253689 12.375,1.28253689 C12.2125,1.28253689 12.2125,1.28253689 12.2125,1.12221978 C12.2125,1.12221978 12.2125,1.12221978 12.2125,1.12221978 C12.2125,0.801585554 12.375,0.480951332 12.5375,0.320634222 C12.7,0.160317111 12.8625,0.160317111 13.1875,0 C13.1875,0 13.1875,0 13.1875,0 C13.1875,0 13.35,0 13.35,0.160317111 C13.5125,0.160317111 13.8375,0 14.1625,0 C14.1625,0 14.1625,0 14.1625,0 L14.1625,0 Z M17.575,0.160317111 L17.575,0.160317111 C18.55,0.160317111 19.3625,0.641268443 20.175,1.28253689 C20.825,1.76348822 21.3125,2.24443955 21.8,2.56507377 C22.125,2.72539088 22.45,2.88570799 22.6125,3.20634222 C22.9375,3.52697644 23.1,3.84761066 23.2625,4.32856199 C23.425,4.32856199 23.5875,4.16824488 23.75,4.00792777 C23.9125,3.84761066 24.075,3.52697644 24.4,3.20634222 C24.8875,3.20634222 25.05,3.20634222 25.2125,3.20634222 C25.375,3.20634222 25.5375,3.20634222 25.5375,3.20634222 C25.8625,3.36665933 26.025,3.52697644 26.1875,3.68729355 C26.8375,4.96983043 27,6.89363576 27,8.17617265 C26.8375,9.61902665 26.1875,11.0618806 24.8875,11.8634662 C24.075,12.3444175 22.775,12.3444175 21.8,12.1841004 C21.8,12.3444175 21.6375,12.5047346 21.6375,12.6650518 C21.475,13.4666373 20.6625,13.9475886 19.85,13.9475886 C19.525,13.9475886 19.2,13.9475886 19.0375,13.7872715 C18.7125,13.6269544 18.55,13.4666373 18.3875,13.3063202 C18.225,13.1460031 18.0625,12.985686 17.9,12.8253689 C17.9,12.8253689 17.9,12.8253689 17.9,12.8253689 C18.0625,13.1460031 18.225,13.4666373 18.225,13.7872715 C18.3875,14.1079057 18.55,14.42854 18.55,14.9094913 C18.55,15.2301255 18.55,15.7110769 18.55,16.0317111 C18.7125,16.3523453 18.7125,16.5126624 18.7125,16.8332966 C18.7125,17.1539309 18.55,17.4745651 18.3875,17.6348822 C18.0625,17.6348822 17.7375,17.6348822 17.4125,17.6348822 C17.25,17.6348822 16.4375,17.6348822 16.1125,17.6348822 C15.95,17.6348822 15.7875,17.6348822 15.625,17.6348822 C15.4625,17.6348822 15.4625,17.6348822 15.3,17.4745651 C15.1375,17.6348822 14.975,17.7951993 14.65,17.9555164 C14.4875,18.1158335 14.4875,18.1158335 14.325,18.1158335 C14.325,18.1158335 14.1625,18.2761506 14.1625,18.2761506 C14,18.4364677 14,18.5967848 14,18.5967848 C13.8375,18.757102 13.8375,18.9174191 13.5125,18.9174191 C13.025,19.2380533 12.375,19.2380533 12.05,18.9174191 C11.725,18.757102 11.4,18.2761506 11.075,17.7951993 C11.075,17.6348822 10.75,17.314248 10.5875,16.8332966 C10.5875,16.6729795 10.425,16.3523453 10.5875,16.1920282 C10.5875,16.0317111 10.75,15.871394 10.9125,15.7110769 C10.9125,15.7110769 10.9125,15.7110769 11.075,15.7110769 C10.5875,15.7110769 10.2625,15.7110769 9.775,15.7110769 C9.775,15.7110769 9.775,15.7110769 9.775,15.7110769 C9.775,15.871394 9.775,16.0317111 9.775,16.1920282 C9.775,16.3523453 9.6125,16.5126624 9.6125,16.6729795 C9.45,16.8332966 9.45,16.9936137 9.2875,17.314248 C9.2875,17.6348822 9.2875,17.7951993 9.2875,18.2761506 C9.2875,18.5967848 8.9625,18.757102 8.8,18.757102 C8.6375,18.9174191 8.3125,18.9174191 7.9875,18.757102 C7.5,18.757102 6.85,18.5967848 6.6875,18.4364677 C6.3625,18.2761506 5.875,18.2761506 5.55,17.9555164 C5.3875,17.7951993 5.225,17.6348822 5.225,17.4745651 C5.225,17.314248 5.225,16.9936137 5.225,16.8332966 C5.225,16.6729795 5.3875,16.5126624 5.3875,16.5126624 C5.0625,16.5126624 4.7375,16.5126624 4.4125,16.3523453 C4.0875,16.1920282 3.6,15.871394 3.4375,15.7110769 C2.7875,15.3904426 2.625,14.9094913 2.4625,14.42854 C2.4625,14.2682229 2.4625,14.1079057 2.4625,13.9475886 C2.4625,13.7872715 2.625,13.7872715 2.7875,13.6269544 C3.1125,13.3063202 3.275,13.1460031 3.6,12.8253689 C3.7625,12.5047346 3.7625,12.3444175 3.925,12.0237833 C3.925,11.8634662 3.925,11.7031491 3.7625,11.3825149 C3.7625,10.5809293 3.7625,10.099978 3.7625,9.45870954 C3.6,9.61902665 3.4375,9.61902665 3.275,9.61902665 C2.95,9.45870954 2.7875,9.29839242 2.625,8.9777582 C2.625,8.81744109 2.4625,8.65712398 2.4625,8.33648976 C2.4625,8.33648976 2.4625,8.33648976 2.4625,8.33648976 C2.1375,8.17617265 2.1375,7.85553843 2.1375,7.53490421 C2.1375,7.21426998 2.3,6.89363576 2.625,6.73331865 C2.7875,6.41268443 3.1125,6.25236732 3.275,6.09205021 C3.6,5.9317331 3.7625,5.77141599 3.925,5.77141599 C3.925,5.77141599 3.925,5.77141599 3.925,5.77141599 C4.0875,5.77141599 4.0875,5.77141599 4.0875,5.9317331 C4.0875,5.9317331 4.0875,5.9317331 4.0875,5.9317331 C4.0875,6.09205021 3.925,6.25236732 3.925,6.41268443 C4.25,6.57300154 4.25,6.73331865 4.25,6.89363576 C4.25,7.05395287 4.25,7.3745871 4.25,7.53490421 C4.25,7.53490421 4.0875,7.69522132 4.0875,7.69522132 C4.0875,7.69522132 3.925,7.69522132 3.925,7.69522132 C3.925,7.53490421 3.7625,7.53490421 3.7625,7.53490421 C3.7625,7.69522132 3.7625,7.69522132 3.7625,7.85553843 C3.7625,8.01585554 3.6,8.17617265 3.4375,8.33648976 C3.4375,8.33648976 3.4375,8.33648976 3.4375,8.33648976 C3.4375,8.33648976 3.4375,8.33648976 3.6,8.33648976 C3.925,8.17617265 4.25,7.85553843 4.575,7.53490421 C4.9,6.89363576 5.225,6.41268443 5.875,5.9317331 C7.175,4.80951332 8.475,4.32856199 10.5875,4.00792777 C10.75,3.68729355 11.075,3.52697644 11.4,3.20634222 C11.725,2.88570799 12.2125,2.72539088 12.5375,2.72539088 C13.1875,1.92380533 13.675,1.28253689 14.8125,0.801585554 C15.7875,0.320634222 16.7625,0.160317111 17.575,0.160317111 L17.575,0.160317111 Z M17.575,0.961902665 L17.575,0.961902665 C16.7625,0.961902665 15.95,1.12221978 14.8125,1.60317111 C14.1625,1.92380533 13.8375,2.24443955 13.5125,2.72539088 C14,2.72539088 14.325,2.72539088 14.8125,2.72539088 L14.8125,2.72539088 C14.975,2.72539088 14.975,2.72539088 14.975,2.88570799 C14.975,2.88570799 14.975,3.0460251 14.8125,3.0460251 C14.1625,3.0460251 13.675,3.20634222 13.025,3.20634222 C12.7,3.20634222 12.5375,3.20634222 12.375,3.36665933 C12.2125,3.36665933 12.05,3.52697644 11.8875,3.68729355 C10.9125,4.64919621 10.2625,5.61109888 9.45,6.41268443 C8.9625,6.89363576 8.8,7.3745871 8.475,8.01585554 C8.3125,8.17617265 8.3125,8.33648976 8.3125,8.49680687 C8.3125,8.65712398 8.475,8.81744109 8.6375,8.9777582 C8.8,9.45870954 9.125,9.77934376 9.2875,10.099978 C9.6125,9.61902665 10.1,9.13807531 10.5875,8.49680687 C10.5875,8.49680687 10.75,8.49680687 10.75,8.49680687 C10.75,8.33648976 10.75,8.49680687 10.75,8.49680687 C10.75,8.49680687 10.75,8.49680687 10.75,8.49680687 C10.2625,9.29839242 9.9375,9.93966087 9.6125,10.5809293 C9.45,11.0618806 9.2875,11.2221978 9.2875,11.542832 C9.6125,12.0237833 9.9375,12.1841004 10.2625,12.3444175 C10.5875,12.5047346 11.075,12.5047346 11.4,12.1841004 C12.2125,11.7031491 13.1875,11.0618806 14.1625,11.0618806 C14.4875,10.2602951 14.4875,9.13807531 14.325,8.01585554 C14.1625,7.21426998 14.1625,6.41268443 14.325,5.45078177 C14.325,5.45078177 14.4875,5.29046466 14.4875,5.29046466 C14.65,5.29046466 14.65,5.29046466 14.65,5.45078177 C14.65,5.45078177 14.65,5.45078177 14.65,5.45078177 C14.65,6.25236732 14.8125,7.05395287 14.975,8.01585554 C15.3,9.29839242 15.3,10.4206122 14.8125,11.7031491 C14.8125,11.7031491 14.65,11.8634662 14.65,11.8634662 C13.5125,11.8634662 12.7,12.5047346 11.5625,12.985686 C11.075,13.3063202 10.5875,13.3063202 10.1,13.1460031 C9.45,12.985686 9.125,12.6650518 8.6375,12.0237833 C8.6375,12.0237833 8.6375,12.0237833 8.6375,11.8634662 C8.6375,11.8634662 8.6375,11.8634662 8.6375,11.8634662 C8.6375,11.3825149 8.8,11.2221978 8.9625,10.9015635 C8.475,10.2602951 8.3125,10.099978 7.9875,9.45870954 C7.6625,9.13807531 7.5,8.81744109 7.5,8.49680687 C7.5,8.33648976 7.5,8.01585554 7.825,7.53490421 C8.15,7.05395287 8.3125,6.41268443 8.8,5.9317331 C9.125,5.61109888 9.45,5.29046466 9.6125,4.96983043 C8.3125,5.13014754 7.3375,5.61109888 6.3625,6.41268443 C5.55,7.05395287 5.0625,8.01585554 4.7375,8.9777582 C4.4125,9.61902665 4.4125,10.2602951 4.4125,11.3825149 C4.575,12.6650518 5.225,14.2682229 6.0375,15.3904426 C6.0375,15.3904426 6.0375,15.3904426 6.0375,15.5507597 C6.0375,15.5507597 6.0375,15.5507597 6.0375,15.5507597 C5.875,16.1920282 5.875,16.8332966 5.55,17.314248 C5.55,17.4745651 5.55,17.4745651 5.55,17.4745651 C5.55,17.4745651 5.7125,17.6348822 5.7125,17.6348822 C5.875,17.7951993 6.2,17.7951993 6.525,17.9555164 C6.6875,17.9555164 7.175,18.1158335 7.5,18.1158335 C7.6625,18.1158335 7.825,18.1158335 7.9875,18.1158335 C8.15,18.1158335 8.15,18.1158335 8.15,17.9555164 C8.15,17.6348822 8.15,17.4745651 8.15,17.1539309 C8.15,17.1539309 8.15,17.1539309 8.15,17.1539309 C8.475,16.6729795 8.475,16.6729795 8.6375,16.3523453 C9.125,16.1920282 9.125,16.0317111 9.125,15.7110769 C9.125,15.2301255 9.125,14.42854 9.125,14.1079057 C9.125,14.1079057 9.125,14.1079057 9.125,14.1079057 C9.125,13.9475886 9.125,13.9475886 9.2875,13.9475886 C9.2875,13.9475886 9.45,13.9475886 9.45,14.1079057 C9.45,14.2682229 9.6125,14.5888571 9.6125,14.9094913 C10.425,15.0698084 11.4,15.0698084 12.2125,14.9094913 C12.2125,14.9094913 12.2125,14.9094913 12.2125,14.7491742 C12.2125,14.42854 12.375,14.2682229 12.5375,14.1079057 C12.5375,14.1079057 12.7,13.9475886 12.7,13.9475886 C12.8625,13.9475886 12.8625,13.9475886 12.8625,14.1079057 C12.8625,14.1079057 12.8625,14.1079057 12.8625,14.1079057 C12.8625,14.2682229 12.8625,14.5888571 12.8625,14.7491742 C12.8625,14.9094913 12.8625,15.0698084 12.8625,15.3904426 C12.8625,15.5507597 12.8625,15.7110769 12.8625,15.7110769 C12.8625,15.7110769 12.8625,15.7110769 12.8625,15.7110769 C12.8625,15.871394 12.8625,15.871394 12.7,15.871394 C12.7,15.871394 12.5375,15.871394 12.5375,15.7110769 C12.5375,15.7110769 12.375,15.5507597 12.375,15.5507597 C12.05,15.7110769 11.725,15.871394 11.4,16.1920282 C11.4,16.1920282 11.4,16.1920282 11.2375,16.3523453 C11.2375,16.3523453 11.2375,16.5126624 11.2375,16.6729795 C11.4,16.9936137 11.5625,17.1539309 11.5625,17.314248 C11.725,17.6348822 12.05,17.9555164 12.2125,18.1158335 C12.375,18.2761506 12.7,18.4364677 13.025,18.2761506 C13.1875,18.1158335 13.35,17.9555164 13.5125,17.6348822 C13.5125,17.6348822 13.5125,17.6348822 13.5125,17.6348822 C13.5125,17.6348822 13.675,17.4745651 13.8375,17.4745651 C14,17.314248 14.1625,17.1539309 14.325,17.1539309 C14.4875,16.9936137 14.65,16.8332966 14.8125,16.8332966 C14.975,16.6729795 14.975,16.6729795 15.1375,16.6729795 C15.1375,16.6729795 15.1375,16.6729795 15.3,16.5126624 C15.3,16.5126624 15.4625,16.3523453 15.4625,16.3523453 C15.625,16.0317111 15.7875,15.871394 15.95,15.7110769 C16.1125,15.5507597 16.275,15.2301255 16.275,15.0698084 C16.4375,14.9094913 16.4375,14.7491742 16.4375,14.5888571 C16.7625,13.7872715 16.925,13.1460031 17.0875,12.3444175 C16.6,12.0237833 16.275,11.8634662 15.7875,11.3825149 C15.7875,11.3825149 15.7875,11.3825149 15.7875,11.2221978 C15.7875,11.0618806 15.7875,11.0618806 15.95,11.0618806 C15.95,11.0618806 15.95,11.0618806 16.1125,11.0618806 C16.7625,11.542832 17.25,11.7031491 17.9,11.8634662 C17.9,11.8634662 17.9,11.8634662 17.9,11.8634662 C18.0625,12.0237833 18.3875,12.3444175 18.55,12.5047346 C18.7125,12.6650518 18.875,12.8253689 19.0375,12.985686 C19.0375,12.985686 19.0375,12.985686 18.875,12.985686 C18.7125,12.8253689 18.7125,12.6650518 18.7125,12.5047346 C18.7125,12.1841004 18.875,11.8634662 18.875,11.542832 C19.0375,11.2221978 18.875,10.9015635 18.875,10.5809293 C18.875,10.5809293 18.875,10.5809293 18.875,10.5809293 C18.875,10.5809293 18.875,10.5809293 18.875,10.5809293 C18.875,10.5809293 18.875,10.5809293 18.875,10.5809293 C18.875,10.5809293 18.875,10.5809293 18.7125,10.7412464 C18.7125,10.9015635 18.55,11.0618806 18.3875,11.3825149 C18.3875,11.3825149 18.225,11.542832 18.225,11.542832 C18.0625,11.542832 18.0625,11.542832 18.0625,11.3825149 L18.0625,11.3825149 C18.0625,11.2221978 18.0625,11.0618806 18.225,10.9015635 C18.225,10.7412464 18.225,10.5809293 18.3875,10.4206122 C18.55,10.2602951 18.7125,10.2602951 18.875,10.2602951 C19.0375,10.2602951 19.2,10.2602951 19.3625,10.099978 C19.3625,10.099978 19.3625,10.099978 19.3625,10.099978 C19.525,10.099978 19.525,10.099978 19.525,10.2602951 C19.525,10.2602951 19.525,10.4206122 19.525,10.4206122 C19.3625,10.4206122 19.2,10.5809293 19.0375,10.5809293 C19.0375,10.5809293 19.0375,10.5809293 19.0375,10.5809293 C19.3625,10.7412464 19.525,10.9015635 19.85,10.9015635 C21.3125,11.3825149 22.775,11.8634662 24.2375,11.0618806 C25.2125,10.4206122 25.8625,9.13807531 26.025,8.01585554 C26.1875,6.89363576 25.8625,5.29046466 25.5375,4.16824488 C25.5375,4.16824488 25.5375,4.00792777 25.375,4.00792777 C25.2125,4.64919621 24.8875,5.13014754 24.075,5.29046466 C23.9125,5.29046466 23.75,5.29046466 23.5875,5.29046466 C23.425,5.29046466 23.425,5.29046466 23.2625,5.13014754 C23.2625,5.13014754 23.2625,5.13014754 23.2625,5.29046466 C23.425,5.77141599 23.425,6.41268443 23.2625,6.89363576 C23.1,7.3745871 23.1,7.85553843 22.775,8.33648976 C22.775,8.33648976 22.6125,8.33648976 22.6125,8.33648976 C22.45,8.33648976 22.45,8.33648976 22.45,8.17617265 C22.45,8.17617265 22.45,8.17617265 22.45,8.17617265 C22.45,8.01585554 22.6125,7.3745871 22.6125,6.89363576 C22.6125,6.73331865 22.6125,6.41268443 22.6125,6.25236732 C22.6125,6.25236732 22.45,6.25236732 22.45,6.41268443 C22.2875,6.41268443 22.2875,6.57300154 22.2875,6.57300154 C22.125,7.05395287 22.125,7.3745871 21.8,7.85553843 C21.8,7.85553843 21.6375,8.01585554 21.6375,8.01585554 C21.475,8.01585554 21.475,8.01585554 21.475,7.85553843 C21.475,7.85553843 21.475,7.85553843 21.475,7.85553843 C21.6375,7.69522132 21.6375,7.3745871 21.6375,7.21426998 C21.6375,7.05395287 21.6375,6.73331865 21.8,6.41268443 C21.8,6.41268443 21.8,6.41268443 21.8,6.41268443 C21.6375,6.41268443 21.6375,6.57300154 21.475,6.73331865 C21.3125,6.89363576 21.3125,7.21426998 20.9875,7.53490421 C20.9875,7.53490421 20.825,7.53490421 20.825,7.53490421 C20.6625,7.53490421 20.6625,7.53490421 20.6625,7.3745871 C20.6625,7.3745871 20.6625,7.3745871 20.6625,7.21426998 C20.825,6.89363576 20.825,6.57300154 20.9875,6.25236732 C21.15,5.9317331 21.3125,5.77141599 21.8,5.61109888 C21.9625,5.61109888 21.9625,5.61109888 22.125,5.61109888 C21.9625,5.61109888 21.6375,5.61109888 21.475,5.61109888 C21.475,5.61109888 21.475,5.61109888 21.475,5.61109888 C21.3125,5.61109888 21.3125,5.61109888 21.3125,5.45078177 C21.3125,5.45078177 21.3125,5.29046466 21.475,5.29046466 C21.475,5.29046466 21.475,5.29046466 21.6375,5.29046466 C21.6375,5.13014754 21.475,5.13014754 21.6375,4.96983043 C21.6375,4.96983043 21.6375,4.96983043 21.6375,4.96983043 L21.6375,4.96983043 C21.475,4.96983043 21.475,4.96983043 21.3125,4.96983043 C21.3125,4.96983043 21.15,4.80951332 21.15,4.80951332 C21.15,4.80951332 21.15,4.64919621 21.3125,4.64919621 C21.475,4.64919621 21.8,4.4888791 21.9625,4.4888791 C21.9625,4.4888791 21.9625,4.4888791 21.9625,4.4888791 C21.9625,4.4888791 21.9625,4.4888791 21.9625,4.4888791 C21.9625,4.4888791 21.9625,4.4888791 21.9625,4.4888791 C21.9625,4.4888791 21.9625,4.4888791 21.9625,4.4888791 C22.125,4.4888791 22.2875,4.32856199 22.45,4.32856199 C22.45,4.32856199 22.45,4.32856199 22.6125,4.32856199 C22.45,4.16824488 22.45,4.00792777 22.2875,3.68729355 C22.125,3.52697644 21.9625,3.52697644 21.6375,3.20634222 C21.6375,3.20634222 21.475,3.20634222 21.475,3.0460251 C21.3125,3.0460251 20.9875,3.0460251 20.825,3.0460251 C20.825,3.0460251 20.825,3.0460251 20.825,3.0460251 C20.6625,3.0460251 20.6625,3.0460251 20.6625,2.88570799 C20.6625,2.88570799 20.6625,2.72539088 20.825,2.72539088 C20.825,2.72539088 20.9875,2.72539088 20.9875,2.72539088 C20.6625,2.40475666 20.3375,2.24443955 20.0125,1.92380533 C19.2,1.28253689 18.3875,0.961902665 17.575,0.961902665 L17.575,0.961902665 Z M18.0625,3.52697644 C18.0625,3.52697644 18.0625,3.52697644 18.0625,3.52697644 C18.225,3.52697644 18.225,3.52697644 18.225,3.68729355 C18.225,3.68729355 18.225,3.84761066 18.0625,3.84761066 C17.25,4.16824488 17.0875,4.64919621 16.925,5.29046466 C16.925,5.29046466 16.7625,5.45078177 16.7625,5.45078177 C16.7625,5.45078177 16.6,5.45078177 16.6,5.29046466 C16.6,4.96983043 16.6,4.4888791 16.7625,4.16824488 C16.925,3.84761066 17.4125,3.68729355 18.0625,3.52697644 C18.0625,3.52697644 18.0625,3.52697644 18.0625,3.52697644 L18.0625,3.52697644 Z M14.4875,3.52697644 C14.4875,3.52697644 14.4875,3.52697644 14.4875,3.52697644 C14.65,3.52697644 14.65,3.52697644 14.65,3.68729355 C14.65,3.68729355 14.65,3.84761066 14.4875,3.84761066 C14.1625,4.00792777 13.8375,4.16824488 13.35,4.32856199 C13.025,4.80951332 12.8625,4.96983043 12.8625,5.61109888 C12.8625,5.61109888 12.7,5.77141599 12.7,5.77141599 C12.7,5.77141599 12.5375,5.77141599 12.5375,5.61109888 C12.375,5.29046466 12.375,5.13014754 12.375,4.80951332 C12.2125,5.13014754 12.2125,5.29046466 12.05,5.61109888 C11.8875,6.09205021 11.5625,6.41268443 11.5625,6.73331865 C11.5625,6.73331865 11.4,6.89363576 11.4,6.89363576 C11.2375,6.89363576 11.2375,6.89363576 11.2375,6.73331865 C11.2375,6.73331865 11.2375,6.73331865 11.2375,6.73331865 C11.2375,6.41268443 11.4,5.9317331 11.5625,5.45078177 C11.725,4.80951332 12.05,4.32856199 12.2125,4.16824488 C12.375,4.00792777 12.5375,3.84761066 12.7,3.84761066 C12.8625,3.84761066 13.025,3.84761066 13.1875,3.84761066 C13.5125,3.68729355 14,3.68729355 14.4875,3.52697644 C14.4875,3.52697644 14.4875,3.52697644 14.4875,3.52697644 L14.4875,3.52697644 Z M25.2125,3.84761066 C25.2125,3.84761066 25.2125,3.84761066 25.2125,3.84761066 C24.8875,4.16824488 24.725,4.4888791 24.4,4.80951332 C24.2375,4.96983043 24.075,4.96983043 24.075,4.96983043 C24.075,4.96983043 24.2375,4.96983043 24.2375,4.96983043 C24.4,4.96983043 24.4,4.80951332 24.4,4.80951332 C24.725,4.4888791 25.05,4.32856199 25.2125,3.84761066 L25.2125,3.84761066 Z M19.525,4.96983043 L19.525,4.96983043 L19.525,4.96983043 C19.6875,4.96983043 19.6875,4.96983043 19.6875,5.13014754 C19.6875,5.13014754 19.6875,5.29046466 19.6875,5.29046466 C19.6875,5.29046466 19.525,5.45078177 19.3625,5.45078177 C19.525,5.61109888 19.525,5.61109888 19.6875,5.77141599 C19.6875,5.77141599 19.6875,5.9317331 19.6875,5.9317331 C19.85,5.9317331 20.175,5.77141599 20.3375,5.77141599 C20.3375,5.77141599 20.3375,5.77141599 20.3375,5.77141599 C20.5,5.77141599 20.5,5.77141599 20.5,5.9317331 C20.5,5.9317331 20.5,6.09205021 20.3375,6.09205021 C19.525,6.25236732 18.875,6.73331865 18.225,7.3745871 C18.225,7.3745871 18.0625,7.3745871 18.0625,7.3745871 C17.9,7.3745871 17.9,7.3745871 17.9,7.21426998 C17.9,7.21426998 17.9,7.21426998 17.9,7.21426998 C17.9,7.05395287 18.0625,6.89363576 18.0625,6.89363576 C17.9,6.73331865 17.9,6.73331865 17.7375,6.57300154 C17.7375,6.57300154 17.7375,6.41268443 17.7375,6.41268443 C17.575,6.57300154 17.4125,6.57300154 17.25,6.73331865 C17.25,6.73331865 17.25,6.73331865 17.25,6.73331865 C17.0875,6.73331865 17.0875,6.73331865 17.0875,6.57300154 C17.0875,6.57300154 17.0875,6.41268443 17.0875,6.41268443 C17.25,6.25236732 17.4125,6.09205021 17.575,5.9317331 C17.7375,5.77141599 17.9,5.45078177 18.0625,5.45078177 C18.225,5.29046466 18.55,5.29046466 18.7125,5.29046466 C19.2,5.13014754 19.3625,4.96983043 19.525,4.96983043 C19.525,4.96983043 19.525,4.96983043 19.525,4.96983043 L19.525,4.96983043 L19.525,4.96983043 Z M2.625,5.61109888 C2.7875,5.61109888 2.7875,5.61109888 2.7875,5.77141599 C2.7875,5.77141599 2.7875,5.9317331 2.7875,5.9317331 C1.975,6.73331865 1.65,7.21426998 1.65,8.33648976 C1.65,8.33648976 1.4875,8.49680687 1.4875,8.49680687 C1.4875,8.49680687 1.325,8.49680687 1.325,8.33648976 C1.325,8.01585554 1.325,7.69522132 1.325,7.53490421 C1.325,7.53490421 1.325,7.53490421 1.325,7.53490421 C1.1625,7.53490421 1,7.3745871 1,7.3745871 C1,7.05395287 1,6.89363576 1,6.57300154 C1.1625,6.41268443 1.325,6.25236732 1.65,6.09205021 C1.65,6.09205021 1.65,6.09205021 1.8125,6.09205021 C1.8125,6.09205021 1.975,6.09205021 1.975,6.25236732 C1.975,5.9317331 2.3,5.77141599 2.625,5.61109888 C2.4625,5.61109888 2.625,5.61109888 2.625,5.61109888 L2.625,5.61109888 Z M22.6125,5.82731227 C22.6125,5.82731227 22.775,5.82731227 22.775,5.82731227 C22.775,5.82731227 22.775,5.82731227 22.775,5.82731227 C22.775,5.82731227 22.775,5.82731227 22.6125,5.82731227 Z M3.275,6.89363576 L3.275,6.89363576 C3.1125,7.05395287 2.95,7.21426998 2.95,7.3745871 C2.7875,7.3745871 2.7875,7.53490421 2.7875,7.69522132 C2.7875,7.85553843 2.7875,8.01585554 2.95,8.17617265 C2.95,8.17617265 2.95,8.17617265 2.95,8.17617265 C3.1125,8.01585554 3.275,7.85553843 3.275,7.53490421 C3.275,7.3745871 3.275,7.21426998 3.275,6.89363576 L3.275,6.89363576 Z M4.0875,8.81744109 C3.925,8.81744109 3.925,8.81744109 4.0875,8.81744109 C3.7625,8.81744109 3.6,8.9777582 3.4375,8.9777582 C3.275,8.9777582 3.275,8.9777582 3.1125,8.81744109 C3.1125,8.81744109 3.1125,8.81744109 3.1125,8.81744109 C3.1125,8.81744109 3.1125,8.81744109 3.1125,8.81744109 C3.1125,8.9777582 3.275,8.9777582 3.4375,8.9777582 C3.6,8.9777582 3.7625,8.9777582 4.0875,8.81744109 C3.925,8.81744109 3.925,8.81744109 4.0875,8.81744109 C3.925,8.81744109 4.0875,8.81744109 4.0875,8.81744109 L4.0875,8.81744109 Z M20.825,12.6650518 C20.825,12.8253689 20.6625,12.8253689 20.5,12.8253689 C20.5,12.8253689 20.5,12.8253689 20.5,12.8253689 C20.6625,12.985686 20.825,12.8253689 20.825,12.6650518 Z M4.25,13.1460031 C4.25,13.1460031 4.25,13.1460031 4.25,13.1460031 C4.25,13.3063202 4.25,13.3063202 4.25,13.1460031 C3.925,13.4666373 3.7625,13.7872715 3.4375,13.9475886 C3.275,14.1079057 3.275,14.1079057 3.275,14.1079057 C3.275,14.1079057 3.275,14.1079057 3.275,14.2682229 C3.275,14.5888571 3.6,14.9094913 3.7625,15.2301255 C3.925,15.3904426 4.25,15.5507597 4.575,15.7110769 C4.7375,15.7110769 4.9,15.871394 5.0625,15.871394 C5.225,15.871394 5.225,15.871394 5.3875,15.7110769 C5.3875,15.7110769 5.3875,15.5507597 5.55,15.3904426 C4.9,14.9094913 4.575,14.1079057 4.25,13.1460031 L4.25,13.1460031 Z M17.575,13.9475886 C17.4125,14.2682229 17.4125,14.5888571 17.25,14.9094913 C17.0875,15.2301255 16.925,15.7110769 16.6,16.0317111 C16.4375,16.3523453 16.1125,16.6729795 15.95,16.8332966 C15.95,16.8332966 16.1125,16.8332966 16.275,16.8332966 C16.4375,16.8332966 16.6,16.8332966 16.925,16.8332966 C17.25,16.8332966 17.4125,16.8332966 17.575,16.8332966 C17.7375,16.8332966 17.9,16.8332966 17.9,16.8332966 C17.9,16.8332966 18.0625,16.6729795 18.0625,16.5126624 C18.0625,16.1920282 18.0625,16.3523453 17.9,16.0317111 C17.9,16.0317111 17.9,16.0317111 17.9,16.0317111 C17.9,15.7110769 17.9,15.2301255 17.9,14.9094913 C17.7375,14.5888571 17.7375,14.42854 17.575,13.9475886 C17.575,13.9475886 17.575,13.9475886 17.575,13.9475886 L17.575,13.9475886 Z" id="hadoop" fill="#54FCE2" fill-rule="nonzero"></path>
    </g>
</svg>