<?xml version="1.0" encoding="UTF-8"?>
<svg width="26px" height="25px" viewBox="0 0 26 25" version="1.1" xmlns="http://www.w3.org/2000/svg" xmlns:xlink="http://www.w3.org/1999/xlink">
    <title>haproxy</title>
    <g id="页面-1" stroke="none" stroke-width="1" fill="none" fill-rule="evenodd">
        <path d="M18,23 L18,25 L16,25 L16,23 L18,23 Z M8,22 L8,24 L6,24 L6,22 L8,22 Z M18,19 L18,22 L15,22 L15,19 L18,19 Z M11,19 L11,22 L8,22 L8,19 L11,19 Z M24,18 L24,20 L22,20 L22,18 L24,18 Z M4,18 L4,20 L2,20 L2,18 L4,18 Z M15,15 L15,19 L11,19 L11,15 L15,15 Z M22,15 L22,18 L19,18 L19,15 L22,15 Z M7,15 L7,18 L4,18 L4,15 L7,15 Z M26,13 L26,15 L24,15 L24,13 L26,13 Z M2,13 L2,15 L0,15 L0,13 L2,13 Z M11,11 L11,15 L7,15 L7,11 L11,11 Z M19,11 L19,15 L15,15 L15,11 L19,11 Z M15,7 L15,11 L11,11 L11,7 L15,7 Z M22,8 L22,11 L19,11 L19,8 L22,8 Z M7,8 L7,11 L4,11 L4,8 L7,8 Z M25,8 L25,10 L23,10 L23,8 L25,8 Z M3,8 L3,10 L1,10 L1,8 L3,8 Z M18,4 L18,7 L15,7 L15,4 L18,4 Z M11,4 L11,7 L8,7 L8,4 L11,4 Z M22,4 L22,6 L20,6 L20,4 L22,4 Z M5,4 L5,6 L3,6 L3,4 L5,4 Z M8,2 L8,4 L6,4 L6,2 L8,2 Z M18,1 L18,3 L16,3 L16,1 L18,1 Z M13,0 L13,2 L11,2 L11,0 L13,0 Z" id="haproxy" fill="#54FCE2"></path>
    </g>
</svg>