<?xml version="1.0" encoding="UTF-8"?>
<svg width="29px" height="13px" viewBox="0 0 29 13" version="1.1" xmlns="http://www.w3.org/2000/svg" xmlns:xlink="http://www.w3.org/1999/xlink">
    <title>keepalived</title>
    <g id="页面-1" stroke="none" stroke-width="1" fill="none" fill-rule="evenodd">
        <path d="M22.2628994,-2.27373675e-13 C20.5303073,-2.27373675e-13 18.9238749,0.79060024 17.506682,1.76202926 C16.4006827,2.52319226 15.3072994,3.46938935 14.2601746,4.41558645 C13.2130498,3.46518403 12.1196665,2.51898693 11.0136672,1.76202926 C9.59647423,0.78639492 7.99004183,-2.27373675e-13 6.25744981,-2.27373675e-13 C2.85114027,-2.27373675e-13 0.0335755814,2.82177001 0.0335755814,6.22387423 C0.0335755814,9.62597845 2.85534559,12.4477485 6.25744981,12.4477485 C7.99004183,12.4477485 9.59647423,11.6571482 11.0136672,10.6857192 C12.1196665,9.9245562 13.2130498,8.97835911 14.2601746,8.03216201 C15.3072994,8.98256443 16.4006827,9.92876152 17.506682,10.6857192 C18.9238749,11.6613535 20.5303073,12.4477485 22.2628994,12.4477485 C25.6692089,12.4477485 28.4867736,9.62597845 28.4867736,6.22387423 C28.4867736,2.82177001 25.6692089,-2.27373675e-13 22.2628994,-2.27373675e-13 Z M9.50395718,8.48633662 C8.25497701,9.34422199 7.19103095,9.78157531 6.25744981,9.78157531 C4.32720774,9.78157531 2.69974873,8.15411631 2.69974873,6.22387423 C2.69974873,4.29363215 4.32720774,2.66617315 6.25744981,2.66617315 C7.19103095,2.66617315 8.25077169,3.09932115 9.50395718,3.96141184 C10.4081011,4.58379926 11.3248609,5.36598886 12.2794687,6.22387423 C11.3248609,7.0817596 10.4081011,7.8639492 9.50395718,8.48633662 L9.50395718,8.48633662 Z M22.2628994,9.78157531 C21.3293182,9.78157531 20.2695775,9.34842731 19.016392,8.48633662 C18.1122481,7.8639492 17.1954882,7.0817596 16.2408805,6.22387423 C17.1954882,5.36598886 18.1122481,4.58379926 19.016392,3.96141184 C20.2653721,3.10352647 21.3293182,2.66617315 22.2628994,2.66617315 C24.1931414,2.66617315 25.8206004,4.29363215 25.8206004,6.22387423 C25.8206004,8.15411631 24.1931414,9.78157531 22.2628994,9.78157531 Z" id="keepalived" fill="#54FCE2" fill-rule="nonzero"></path>
    </g>
</svg>