<?xml version="1.0" encoding="UTF-8"?>
<svg width="21px" height="24px" viewBox="0 0 21 24" version="1.1" xmlns="http://www.w3.org/2000/svg" xmlns:xlink="http://www.w3.org/1999/xlink">
    <title>nginx</title>
    <g id="页面-1" stroke="none" stroke-width="1" fill="none" fill-rule="evenodd">
        <path d="M19.8333333,4.97291667 L11.6666667,0.306249993 C10.9666667,-0.102083331 10.0916667,-0.102083331 9.33333332,0.306249993 L1.16666668,4.97291667 C0.466666676,5.38124999 0,6.13958334 0,7.01458332 L0,16.3479167 C0,17.1645833 0.466666676,17.98125 1.16666668,18.3895833 L9.33333332,23.05625 C10.0333333,23.4645833 10.9083333,23.4645833 11.6666667,23.05625 L19.8333333,18.3895833 C20.5333333,17.98125 21,17.2229166 21,16.3479167 L21,7.01458332 C21,6.19791664 20.5333333,5.43958332 19.8333333,4.97291667 Z M14.35,16.75625 C13.825,16.75625 13.1833333,16.5229167 12.775,16.05625 L7.58333332,9.87291667 L7.58333332,15.6479167 C7.58333332,16.2895833 7.11666665,16.75625 6.475,16.75625 L6.41666668,16.75625 C5.775,16.75625 5.30833332,16.23125 5.30833332,15.6479167 L5.30833332,7.71458332 C5.30833332,7.13124999 5.83333332,6.60624999 6.59166668,6.60624999 C7.175,6.60624999 7.75833335,6.83958332 8.16666668,7.30624999 L13.3583333,13.4895833 L13.3583333,7.71458332 C13.3583333,7.07291664 13.8833333,6.60624999 14.4666667,6.60624999 L14.525,6.60624999 C15.1666667,6.60624999 15.6333333,7.13124999 15.6333333,7.71458332 L15.6333333,15.6479167 C15.6916666,16.2895833 15.1083333,16.75625 14.35,16.75625 L14.35,16.75625 Z" id="nginx" fill="#54FCE2" fill-rule="nonzero"></path>
    </g>
</svg>