<?xml version="1.0" encoding="UTF-8"?>
<svg width="25px" height="21px" viewBox="0 0 25 21" version="1.1" xmlns="http://www.w3.org/2000/svg" xmlns:xlink="http://www.w3.org/1999/xlink">
    <title>redis</title>
    <g id="é¡µé¢-1" stroke="none" stroke-width="1" fill="none" fill-rule="evenodd">
        <path d="M24.994,12.6252451 L24.999,12.6272451 L24.999,15.0192451 C24.999,15.2582451 24.71,15.5222451 24.059,15.8612451 C22.778,16.5292451 16.143,19.2572451 14.731,19.9932451 C13.318,20.7302451 12.534,20.7232451 11.418,20.1892451 C10.8605,19.9227451 8.81649998,19.0764951 6.75287498,18.2208701 L6.0662853,17.936097 C4.24417282,17.1799488 2.53533332,16.4664673 1.96999998,16.1962451 C1.33400001,15.8922451 1,15.6352451 1,15.3932451 L1,15.3932451 L1,12.9672451 C1.01099999,13.2092451 1.33499999,13.4652451 1.96999998,13.7692451 L1.96999998,13.7692451 L2.23358092,13.8904252 C4.00809875,14.6860846 10.364,17.2588562 11.418,17.7622451 C12.534,18.2962451 13.318,18.3032451 14.731,17.5672451 C16.143,16.8312451 22.779,14.1022451 24.059,13.4352451 C24.681,13.1102451 24.984,12.8542451 24.994,12.6252451 L24.994,12.6252451 Z M24.993,8.6702451 L24.999,8.67124511 L24.999,11.0632451 C24.999,11.3022451 24.71,11.5662451 24.059,11.9062451 C22.778,12.5732451 16.143,15.3022451 14.731,16.0382451 C13.318,16.7742451 12.534,16.7672451 11.418,16.2332451 C10.302,15.7002451 3.24199998,12.8482451 1.96999998,12.2402451 C1.33400001,11.9362451 1,11.6802451 1,11.4382451 L1,11.4382451 L1,9.0122451 C1.01099999,9.25324511 1.33499999,9.5102451 1.96999998,9.8132451 C3.24199998,10.4212451 10.302,13.2742451 11.418,13.8072451 C12.534,14.3402451 13.318,14.3472451 14.731,13.6112451 C16.143,12.8752451 22.779,10.1462451 24.059,9.47924512 C24.68,9.15424511 24.983,8.89924511 24.993,8.6702451 L24.993,8.6702451 Z M11.678,0.419245117 C13.161,-0.113754875 13.675,-0.132754883 14.938,0.329245117 C16.201,0.792245101 22.796,3.4172451 24.044,3.87424511 C24.686,4.11024512 25.005,4.32424511 24.993,4.56824512 L24.993,4.56824512 L25,4.56824512 L25,6.9602451 C25,7.19924509 24.711,7.46324509 24.06,7.8032451 C22.779,8.47024511 16.144,11.1992451 14.732,11.9352451 C13.319,12.6712451 12.535,12.6642451 11.419,12.1312451 C10.303,11.5982451 3.24299999,8.7452451 1.97099999,8.13724511 C1.33499999,7.8332451 1.00076191,7.57724509 1.00076191,7.3352451 L1.00076191,7.3352451 L1.00076191,4.9082451 C0.991,4.66624511 1.29599999,4.43924512 1.921,4.19324512 C3.16999998,3.7052451 10.192,0.950245117 11.678,0.419245117 Z M15.155,6.01124512 L9.59399999,6.86524511 L9.595,6.86524511 L13.475,8.47424512 L15.155,6.01124512 Z M18.603,3.34724512 L14.961,4.78724512 L18.248,6.0872451 L18.605,5.94724511 L21.894,4.6472451 L21.893,4.6472451 L18.603,3.34724512 Z M8.095,3.6632451 C6.45299999,3.6632451 5.122,4.1792451 5.122,4.8152451 C5.122,5.45024509 6.45300002,5.9672451 8.095,5.9672451 C9.73699998,5.9672451 11.067,5.4512451 11.067,4.8152451 C11.067,4.1792451 9.73700001,3.66424511 8.095,3.66424511 L8.095,3.66424511 Z M11.7,1.2722451 L12.238,2.26424512 L10.447,2.9102451 L12.847,3.1262451 L13.599,4.37524511 L14.065,3.2552451 L16.144,3.0392451 L14.532,2.43524512 L14.96,1.4102451 L13.378,1.92824512 L11.7,1.2722451 Z" id="redis" fill="#55FDE2" fill-rule="nonzero"></path>
    </g>
</svg>