<?xml version="1.0" encoding="UTF-8"?>
<svg width="30px" height="21px" viewBox="0 0 30 21" version="1.1" xmlns="http://www.w3.org/2000/svg" xmlns:xlink="http://www.w3.org/1999/xlink">
    <title>tomact</title>
    <g id="页面-1" stroke="none" stroke-width="1" fill="none" fill-rule="evenodd">
        <path d="M14.3413786,7.40247992 L14.3536194,7.45121438 L14.3841396,7.52452824 C14.4878758,7.76852694 16.9655969,13.5905808 21.8477253,15.1772741 L21.8477253,15.1772741 L22.3725428,15.3482527 L22.9767783,14.9455162 C24.1484943,16.1781747 26.0830858,18.2531919 26.5041671,18.753528 C27.4195458,18.7352158 28.5180459,19.0281449 29.0795204,19.6568291 C29.4030023,20.01687 29.5616422,20.4134699 29.5067711,20.6943214 L29.5067711,20.6943214 L29.4640101,20.9017937 L26.3332864,20.9017937 C20.6393523,17.9297753 15.5985187,15.8059258 10.3258945,15.3360773 C10.3258945,15.3360773 7.65904578,15.0432136 6.64590442,15.4092606 C5.41301734,15.7082936 4.631993,16.3612962 4.15590992,16.9349787 C3.3991712,17.8442207 3.03312419,19.0648018 3.21614769,20.0412862 L3.21614769,20.0412862 L3.2709862,20.3463907 L0,20.3463907 L0,20.089988 C0,19.6017948 1.81247784,16.6237376 4.29633566,13.8592241 C4.45491033,13.6821415 4.61364821,13.505222 4.78446363,13.3221985 L4.78446363,13.3221985 L5.1384984,12.9498516 C7.23776856,10.759086 10.844608,8.50714936 14.3413786,7.40247992 L14.3413786,7.40247992 Z M7.48796923,16.1904481 C8.69023815,16.0928486 10.3258292,16.2758721 10.3258292,16.2758721 C10.3745636,16.2819762 10.429598,16.2880802 10.4782998,16.2941843 C10.6248622,16.8251059 10.8629201,17.2767401 11.1984142,17.6489238 C11.7415439,17.4597636 12.3336039,17.4964206 12.7179957,17.746556 C12.9743657,17.9175019 13.1208955,18.1676047 13.1208955,18.4484235 L13.1208955,18.4484235 L13.1208955,18.7046956 L10.6919088,18.7046956 C9.50795206,17.8747736 8.42169269,17.0203701 7.48796923,16.1904481 Z M15.5742331,1.50990331e-14 C16.6726026,0.518680851 18.1312742,1.44639819 18.4241705,2.65464058 C20.1634651,2.35560753 22.146791,2.32505465 23.910567,2.58756134 C24.276614,1.46451448 25.9060684,0.366177582 26.7971288,0.0243835491 C27.1266821,0.68962683 27.3097056,3.12458698 27.3097056,3.69810633 L27.3097056,3.69810633 C27.3463299,5.79750706 26.9191445,7.71985777 26.1440936,9.39194251 L26.1440936,9.39194251 L25.9671415,9.75818538 C25.8815869,9.92896814 25.7900588,10.0999468 25.6924267,10.2707622 L25.6924267,10.2707622 L25.472681,10.637005 C24.606102,12.0406749 23.483251,13.2184623 22.1894867,14.1277043 C18.0128552,12.7661059 15.7028885,7.77853323 15.4304576,7.16040539 L15.4031892,7.0974081 C15.147015,6.11485226 14.9882771,5.04683975 14.9456141,3.88126041 C14.9456141,3.88132569 14.9516202,3.87522164 14.9577569,3.88746238 C14.9029184,2.59983472 15.1103907,0.781220189 15.5742331,1.50990331e-14 Z M8.97089378,4.25961344 C9.52016015,3.99119855 11.4913759,4.65644183 12.4678603,6.02338947 C11.1435104,6.61528625 8.92826337,6.40164458 8.51925953,5.79143566 C8.42162741,5.64490587 8.39120509,5.40704386 8.42162741,5.1628493 C6.86548693,4.90037525 5.3520095,4.99190332 4.28402963,6.31622056 C3.60654562,7.16451999 3.33199403,8.22022647 3.49060135,9.36765689 C3.58842932,10.0877387 3.88129305,10.9969154 4.54650369,12.0710319 C4.49763866,12.1138255 4.44877364,12.1625274 4.40611059,12.2114577 L4.40611059,12.2114577 L4.18026082,12.4494829 C3.52115423,11.4059519 3.11845029,10.3989145 2.98409595,9.44084018 C2.80107245,8.14707583 3.11845029,6.95698236 3.8873971,5.998908 C4.67455812,5.02245621 5.72435642,4.54653633 7.09744074,4.53429559 C7.48790395,4.52819155 8.02499487,4.60137483 8.56202051,4.69900696 C8.65351594,4.5098794 8.78787027,4.35114152 8.97089378,4.25961344 Z" id="tomact" fill="#54FCE2" fill-rule="nonzero"></path>
    </g>
</svg>