<?xml version="1.0" encoding="UTF-8"?>
<svg width="26px" height="26px" viewBox="0 0 26 26" version="1.1" xmlns="http://www.w3.org/2000/svg" xmlns:xlink="http://www.w3.org/1999/xlink">
    <title>weblogic</title>
    <g id="页面-1" stroke="none" stroke-width="1" fill="none" fill-rule="evenodd">
        <path d="M25.6578948,9.64736843 L24.1526316,11.1526316 C24.3578947,11.7 24.3578947,12.4526316 24.3578947,13 C24.3578947,18.7473684 19.9105263,23.7421053 14.1631579,24.1526316 C8.34736841,24.7 2.94210525,20.8 2.05263158,15.0526316 C0.957894748,9.51052631 4.31052632,3.69473685 9.85263159,2.05263158 C15.3947369,0.410526316 21.3473684,3.14736841 23.6052632,8.75789472 L24.7,7.45789473 C22.6473684,3.14736841 18.2,0 13,0 C9.57894735,0 6.22631578,1.36842106 3.76315789,3.76315789 C1.29999999,6.15789471 0,9.51052631 0,13 C0,16.4894737 1.36842106,19.7736842 3.76315789,22.2368421 C6.22631578,24.631579 9.57894735,26 13,26 C16.4210526,26 19.7736842,24.6315789 22.2368421,22.2368421 C24.631579,19.7736842 26,16.4210526 26,13 C26,11.9052632 25.7947368,10.7421053 25.6578948,9.64736843 Z M22.6473684,9.64736843 C21.1421053,5.74736843 17.4473684,2.80526314 13,2.80526314 C7.45789473,2.80526314 2.80526314,7.45789473 2.80526314,13 C2.80526314,18.5421053 7.45789473,23.1947369 13,23.1947369 C18.5421053,23.1947369 23.1947369,18.5421053 23.1947369,13 L23.1947369,12.0421053 L15.6,19.7052632 L15.6,13.7526316 L8.89473684,20.4578947 L8.89473684,13.7526316 L5.95263158,13.7526316 L5.95263158,11.7 L10.9473684,11.7 L10.9473684,15.2578947 L17.6526316,8.55263156 L17.6526316,14.7105263 L22.6473684,9.64736843 L22.6473684,9.64736843 Z" id="weblogic" fill="#55FDE2" fill-rule="nonzero"></path>
    </g>
</svg>