<?xml version="1.0" encoding="UTF-8"?>
<svg width="37px" height="20px" viewBox="0 0 37 20" version="1.1" xmlns="http://www.w3.org/2000/svg" xmlns:xlink="http://www.w3.org/1999/xlink">
    <title>zookeeper</title>
    <g id="页面-1" stroke="none" stroke-width="1" fill="none" fill-rule="evenodd">
        <g id="zookeeper" transform="translate(1.000000, 0.000000)" fill="#55FDE2" fill-rule="nonzero">
            <path d="M7.54124512,13.4968129 C7.54124512,13.4968129 19.8479951,14.8733787 24.6836004,17.4264971 C29.5192056,19.9796155 33.8057714,20.3090234 29.3976267,16.9637076 C24.989482,13.6183918 14.6633241,9.8769576 7.54124512,13.4968129 L7.54124512,13.4968129 Z" id="路径"></path>
            <path d="M26.5660609,1.66856287 C20.8206267,-0.704160818 13.8554162,-0.0962660807 10.5414425,0.754786551 C7.22746881,1.60583918 0.356481963,4.43349708 0.0191793319,8.02193129 C-0.169031194,10.0337866 1.04667933,11.4652997 2.84285038,12.4731813 C2.80756091,12.3594576 2.77613986,12.2496418 2.74092933,12.1437339 L2.53306091,11.4848787 L3.11352144,11.1044708 C4.17635038,10.410326 5.95688986,9.42589181 8.41191617,8.65722076 C10.8081662,7.90816813 13.3220083,7.52772076 15.8869293,7.52772076 C15.9457451,7.52772076 16.0046004,7.52772076 16.0634162,7.53162866 L16.5928767,7.07274708 L13.7692056,6.82177339 L13.894732,6.04133918 L18.7813372,6.6099576 L17.6282714,7.5903655 C18.2400741,7.62960234 18.8558241,7.69623392 19.4675872,7.77857602 C19.7499425,7.52365497 20.1343372,7.2962076 20.6559425,7.11581287 C21.7265872,6.74716813 23.2365346,7.25306287 23.9111004,8.50414181 C23.9738241,8.62181287 24.0287714,8.73944445 24.0719162,8.86106287 C24.487653,9.00616813 24.8955346,9.16694445 25.2955214,9.33952339 C25.5425872,9.07283918 26.0053767,8.7356155 26.5897056,8.74339181 C27.2446135,8.75124708 27.9701793,9.21790497 28.2956793,9.57087866 C28.5937451,9.90032602 29.1153899,10.6847076 29.1937846,11.5866813 C29.2957056,11.665076 29.3977451,11.7396418 29.4957583,11.8180366 C31.3037714,13.257326 32.1273109,14.524155 32.1586925,14.5790234 L32.382232,14.9280892 L32.2685083,15.3241681 C32.2410741,15.414405 32.2057846,15.5202339 32.1390741,15.6496681 C33.4293504,14.9123787 35.0294162,13.6455892 35.5118241,11.7278392 C36.3589293,8.35508918 32.315482,4.03714181 26.5661004,1.66832602 L26.5661004,1.66832602 L26.5660609,1.66856287 Z" id="路径"></path>
            <path d="M29.0760741,12.6575629 C28.8721135,13.2576023 28.4133109,13.6889708 27.6014556,13.7125366 C26.4406135,13.7439576 25.4915083,12.6771813 25.0522846,11.8104576 C24.7738767,11.265326 24.7620346,10.6535234 24.883653,10.1554444 C24.6757846,10.069155 24.4640083,9.98290497 24.2483241,9.90052339 C24.2208899,10.7476287 23.7698635,11.5123918 22.8835214,11.7516418 C21.5147714,12.1202866 20.0872846,11.5084839 19.3460083,10.6025629 C18.9851793,10.1633392 18.6832451,9.3789576 18.9185083,8.62591813 C18.1341267,8.53177339 17.3654951,8.47690497 16.6203109,8.45337866 L14.8711925,9.93585234 L17.9890609,10.2731155 L17.8204293,11.0731681 L12.5887056,10.547655 L14.9967188,8.45728655 C10.0081135,8.63772076 6.03141617,10.288826 3.61160038,11.8692734 C3.61160038,11.8692734 4.40379775,14.3675234 4.34107407,14.8812339 C4.34107407,14.8812339 4.56070565,14.7282734 5.73331091,14.347826 L5.52544249,13.4968129 L7.12949512,12.6810497 C9.19238986,11.6339313 11.6161135,11.1006023 14.3299688,11.1006023 C20.4127451,11.1006023 26.6876399,13.7595892 29.9466662,16.2342734 C30.0721925,16.3284181 30.1898241,16.4224839 30.3074951,16.5166287 C30.7781399,16.0381681 31.2762188,15.461655 31.3899425,15.0734313 C31.3860346,15.0734313 30.6800872,13.9635102 29.0760346,12.6575629 L29.0760346,12.6575629 L29.0760741,12.6575629 Z" id="路径"></path>
            <path d="M23.1030741,10.1789708 C22.8284951,10.7947208 22.0520083,11.2378918 21.0480346,10.8103918 C20.0440609,10.3828918 19.8949688,9.37887866 20.0754425,8.88478655 C20.2401267,8.43379971 20.675482,8.08864181 21.0402583,7.96710234 C21.4049556,7.84556287 22.2874293,7.90437866 22.7305609,8.40241813 C23.1737714,8.90049708 23.3816004,9.56326024 23.1031135,10.1790102 L23.1031135,10.1790102 L23.1030741,10.1789708 Z" id="路径"></path>
            <path d="M27.9465741,12.5712734 C27.4014425,13.0850234 26.4837583,12.6418918 26.1072583,12.0418129 C25.7268504,11.4417734 25.7503372,10.7319181 25.9111925,10.3123129 C25.9111925,10.3123129 26.2994556,9.53973392 27.0485478,9.68089181 C27.7976004,9.82208918 28.1780478,10.5594181 28.2800083,10.9789839 C28.3819293,11.4025366 28.4917846,12.0614313 27.946653,12.5712734 L27.946653,12.5712734 L27.9465741,12.5712734 Z" id="路径"></path>
        </g>
    </g>
</svg>