<?xml version="1.0" encoding="UTF-8"?>
<svg width="26px" height="23px" viewBox="0 0 26 23" version="1.1" xmlns="http://www.w3.org/2000/svg" xmlns:xlink="http://www.w3.org/1999/xlink">
    <title>业务系统</title>
    <g id="页面-1" stroke="none" stroke-width="1" fill="none" fill-rule="evenodd">
        <path d="M25.0714286,0 C25.5842644,0 26,0.415735589 26,0.928571429 L26,15.7857143 C26,16.2985501 25.5842644,16.7142857 25.0714286,16.7142857 L15.7857143,16.7142857 L16.4672857,19.4396429 C16.6213984,20.0555751 17.079491,20.5500911 17.6818571,20.7507857 L18.8648571,21.1454286 C19.2442183,21.2717811 19.5000963,21.6267931 19.5,22.0266429 L19.5,22.2857143 L6.5,22.2857143 L6.5,22.0257143 C6.50030334,21.6262064 6.7561059,21.271673 7.13514286,21.1454286 L8.31814286,20.7507857 C8.92050896,20.5500911 9.37860163,20.0555751 9.53271429,19.4396429 L10.2142857,16.7142857 L0.928571429,16.7142857 C0.415735589,16.7142857 0,16.2985501 0,15.7857143 L0,0.928571429 C0,0.415735589 0.415735589,0 0.928571429,0 L25.0714286,0 Z M24.1428571,1.85714286 L1.85714286,1.85714286 L1.85714286,14.8571429 L24.1428571,14.8571429 L24.1428571,1.85714286 Z M8.45928571,4.28071429 L16.3391429,6.90857143 L13.8069286,8.31535714 L16.3391429,10.8475714 L15.0261429,12.1605714 L12.4939286,9.62835714 L11.0862143,12.1605714 L8.46021429,4.28164286 L8.45928571,4.28071429 Z" id="业务系统" fill="#54FCE2" fill-rule="nonzero"></path>
    </g>
</svg>