<?xml version="1.0" encoding="UTF-8"?>
<svg width="21px" height="21px" viewBox="0 0 21 21" version="1.1" xmlns="http://www.w3.org/2000/svg" xmlns:xlink="http://www.w3.org/1999/xlink">
    <title>交换机</title>
    <g id="页面-1" stroke="none" stroke-width="1" fill="none" fill-rule="evenodd">
        <path d="M17.8183106,4.97379915e-14 C18.1755252,4.97379915e-14 18.476925,0.263445765 18.526042,0.616195179 L18.526042,0.616195179 L20.0040174,11.4732863 L19.9883893,11.4732863 L20.00625,11.4911471 L20.00625,19.2025172 C20.00625,19.6535006 19.640105,20.0196455 19.1891216,20.0196455 L19.1891216,20.0196455 L0.81712839,20.0196455 C0.366144961,20.0196455 -1.59872116e-14,19.6535006 -1.59872116e-14,19.2025172 L-1.59872116e-14,19.2025172 L-1.59872116e-14,11.4911471 L0.0178607298,11.4732863 L-1.59872116e-14,11.4732863 L1.52039463,0.613962588 C1.57174422,0.261213174 1.87314404,4.97379915e-14 2.22812605,4.97379915e-14 L2.22812605,4.97379915e-14 Z M18.575159,11.4732863 L1.42885839,11.4732863 L1.42885839,18.5907872 L18.575159,18.5907872 L18.575159,11.4732863 Z M5.23319384,15.8000481 C5.4988722,15.8000481 5.71543355,16.0166095 5.71543355,16.2822878 L5.71543355,16.2822878 L5.71543355,16.7332713 C5.71543355,16.9989496 5.4988722,17.215511 5.23319384,17.215511 L5.23319384,17.215511 L3.33995648,17.215511 C3.07427812,17.215511 2.85771677,17.0011822 2.85771677,16.7332713 L2.85771677,16.7332713 L2.85771677,16.2822878 C2.85771677,16.0166095 3.07427812,15.8000481 3.33995648,15.8000481 L3.33995648,15.8000481 Z M7.84532558,15.7978155 C8.23602904,15.7978155 8.553057,16.1148435 8.553057,16.505547 L8.553057,16.505547 C8.553057,16.898483 8.23602904,17.215511 7.84532558,17.215511 L7.84532558,17.215511 L7.82969744,17.215511 C7.43899397,17.215511 7.12196602,16.9007156 7.12196602,16.5077795 L7.12196602,16.5077795 C7.12196602,16.1148435 7.43899397,15.7978155 7.82969744,15.7978155 L7.82969744,15.7978155 Z M10.7030424,15.7978155 C11.0937458,15.7978155 11.4107738,16.1148435 11.4107738,16.505547 L11.4107738,16.505547 C11.4107738,16.898483 11.0937458,17.215511 10.7030424,17.215511 L10.7030424,17.215511 L10.6874142,17.215511 C10.2967107,17.215511 9.97968279,16.9007156 9.97968279,16.5077795 L9.97968279,16.5077795 C9.97968279,16.1148435 10.2967107,15.7978155 10.6874142,15.7978155 L10.6874142,15.7978155 Z M13.5384332,15.7978155 C13.9291367,15.7978155 14.2461646,16.1148435 14.2461646,16.505547 L14.2461646,16.505547 C14.2461646,16.898483 13.9291367,17.215511 13.5384332,17.215511 L13.5384332,17.215511 L13.5228051,17.215511 C13.1321016,17.215511 12.8150737,16.9007156 12.8150737,16.5077795 L12.8150737,16.5077795 C12.8150737,16.1148435 13.1321016,15.7978155 13.5228051,15.7978155 L13.5228051,15.7978155 Z M16.39615,15.7978155 C16.7868534,15.7978155 17.1038814,16.1148435 17.1038814,16.505547 L17.1038814,16.505547 C17.1038814,16.898483 16.7868534,17.215511 16.39615,17.215511 L16.39615,17.215511 L16.3805218,17.215511 C15.9898184,17.215511 15.6727904,16.9007156 15.6727904,16.5077795 L15.6727904,16.5077795 C15.6727904,16.1148435 15.9898184,15.7978155 16.3805218,15.7978155 L16.3805218,15.7978155 Z M5.23319384,12.9534943 C5.4988722,12.9534943 5.71543355,13.1700557 5.71543355,13.435734 L5.71543355,13.435734 L5.71543355,13.8867174 C5.71543355,14.1523958 5.4988722,14.3689571 5.23319384,14.3689571 L5.23319384,14.3689571 L3.33995648,14.3689571 C3.07427812,14.3689571 2.85771677,14.1523958 2.85771677,13.8867174 L2.85771677,13.8867174 L2.85771677,13.435734 C2.85771677,13.1700557 3.07427812,12.9534943 3.33995648,12.9534943 L3.33995648,12.9534943 Z M7.84532558,12.9512617 C8.23602904,12.9512617 8.553057,13.2682897 8.553057,13.6589931 L8.553057,13.6589931 C8.553057,14.0519292 8.23602904,14.3689571 7.84532558,14.3689571 L7.84532558,14.3689571 L7.82969744,14.3689571 C7.43899397,14.3689571 7.12196602,14.0519292 7.12196602,13.6612257 L7.12196602,13.6612257 C7.12196602,13.2682897 7.43899397,12.9512617 7.82969744,12.9512617 L7.82969744,12.9512617 Z M10.7030424,12.9512617 C11.0937458,12.9512617 11.4107738,13.2682897 11.4107738,13.6589931 L11.4107738,13.6589931 C11.4107738,14.0519292 11.0937458,14.3689571 10.7030424,14.3689571 L10.7030424,14.3689571 L10.6874142,14.3689571 C10.2967107,14.3689571 9.97968279,14.0519292 9.97968279,13.6612257 L9.97968279,13.6612257 C9.97968279,13.2682897 10.2967107,12.9512617 10.6874142,12.9512617 L10.6874142,12.9512617 Z M13.5384332,12.9512617 C13.9291367,12.9512617 14.2461646,13.2682897 14.2461646,13.6589931 L14.2461646,13.6589931 C14.2461646,14.0519292 13.9291367,14.3689571 13.5384332,14.3689571 L13.5384332,14.3689571 L13.5228051,14.3689571 C13.1321016,14.3689571 12.8150737,14.0519292 12.8150737,13.6612257 L12.8150737,13.6612257 C12.8150737,13.2682897 13.1321016,12.9512617 13.5228051,12.9512617 L13.5228051,12.9512617 Z M16.39615,12.9512617 C16.7868534,12.9512617 17.1038814,13.2682897 17.1038814,13.6589931 L17.1038814,13.6589931 C17.1038814,14.0519292 16.7868534,14.3689571 16.39615,14.3689571 L16.39615,14.3689571 L16.3805218,14.3689571 C15.9898184,14.3689571 15.6727904,14.0519292 15.6727904,13.6612257 L15.6727904,13.6612257 C15.6727904,13.2682897 15.9898184,12.9512617 16.3805218,12.9512617 L16.3805218,12.9512617 Z M11.4509604,5.23542643 L11.3884479,6.93889354 L4.36025067,6.93889354 L4.18387596,8.55975477 L11.3281679,8.55975477 L11.2701205,10.1114057 L16.1706583,7.61313609 L11.4509604,5.23542643 Z M9.27418396,1.46457985 L4.50983428,3.67037998 L8.99511006,5.9811119 L9.09111148,4.43615877 L16.139402,4.43615877 L16.1215413,2.93809006 L9.18264772,2.93809006 L9.27418396,1.46457985 Z" id="交换机" fill="#55FDE2" fill-rule="nonzero"></path>
    </g>
</svg>