<?xml version="1.0" encoding="UTF-8"?>
<svg width="27px" height="25px" viewBox="0 0 27 25" version="1.1" xmlns="http://www.w3.org/2000/svg" xmlns:xlink="http://www.w3.org/1999/xlink">
    <title>分布式数据库</title>
    <g id="页面-1" stroke="none" stroke-width="1" fill="none" fill-rule="evenodd">
        <path d="M19.6180698,14.9046367 C19.9896749,14.8059691 20.3709062,15.0272287 20.4695737,15.3988338 C20.5682413,15.7704389 20.3469817,16.1516701 19.9753766,16.2503377 C18.9851263,16.5134455 18.6951045,16.8577593 18.6760791,16.9287566 C18.7438282,17.1695907 19.8988109,17.8452254 22.0997281,17.8452254 C24.3006453,17.8452254 25.4560921,17.1695907 25.5233771,16.9125154 C25.5038877,16.8623996 25.2718703,16.5677375 24.4366075,16.3092701 C24.1936223,16.2402784 24.0070823,16.045065 23.9491971,15.7991972 C23.8913119,15.5533294 23.971167,15.295398 24.1578507,15.1252484 C24.3445343,14.9550988 24.6087449,14.8994372 24.8482064,14.9798103 C26.6463414,15.5357241 26.9145536,16.4336315 26.9145536,16.9194759 C26.9123639,16.9812205 26.9061637,17.0427574 26.8959922,17.1036978 C26.9081,17.1541633 26.9143285,17.2058602 26.9145536,17.2577573 L26.9145536,17.2577573 L26.9145536,19.7853551 C26.913034,19.8361364 26.9086964,19.8867941 26.9015606,19.9370945 C26.9099083,19.9792823 26.9142585,20.0221633 26.9145536,20.0651681 L26.9145536,20.0651681 L26.9145536,22.5927658 C26.887814,23.2738017 26.4399818,23.8662214 25.7920533,24.0776773 C24.5848512,24.5049454 23.3104566,24.7108732 22.0301229,24.685563 C20.7835758,24.7160304 19.5424471,24.5113796 18.3716722,24.0823177 C17.7413756,23.8618735 17.3102317,23.2781172 17.2849027,22.6108632 L17.2849027,22.6108632 L17.2849027,20.06424 C17.285614,20.0245294 17.2896497,19.9849481 17.2969676,19.9459111 C17.2903784,19.8986774 17.2863509,19.8511216 17.2849027,19.8034524 L17.2849027,19.8034524 L17.2849027,17.2605415 C17.2853935,17.2086612 17.2916185,17.1569942 17.303464,17.106482 C17.2932455,17.0450803 17.2870452,16.9830773 17.2849027,16.920868 C17.2849027,16.0183203 18.1136689,15.3041707 19.6180698,14.9046367 Z M7.64365695,15.0851524 C7.8190539,14.9088436 8.07518696,14.8395007 8.3155733,14.9032446 C9.81997424,15.3027786 10.6487405,16.0187843 10.6487405,16.9194759 C10.6467501,16.9816749 10.6407049,17.0436778 10.6306431,17.1050899 C10.6423587,17.155615 10.6484284,17.2072847 10.6487405,17.2591494 L10.6487405,17.2591494 L10.6485536,19.779 L15.9735402,19.8303665 C16.3259243,19.8321284 16.6158388,20.095443 16.6602371,20.435417 L16.666121,20.529899 C16.6641901,20.914318 16.3509987,21.224393 15.9665797,21.2224799 L15.9665797,21.2224799 L15.9600832,21.2224799 L10.6485536,21.171 L10.6487405,22.6117913 C10.6252877,23.2312737 10.2520413,23.778834 9.69433543,24.0305188 L9.56243491,24.0832457 C8.39164022,24.5122323 7.15052593,24.7168808 5.90398426,24.686491 C4.62369449,24.7117266 3.34934048,24.5059625 2.14205384,24.0790694 C1.49445383,23.8671531 1.04682567,23.2750034 1.01955357,22.5941579 L1.01955357,22.5941579 L1.01955357,20.0665602 C1.02007498,20.023568 1.02442314,19.9807076 1.03254655,19.9384866 C1.02538974,19.8881886 1.02105197,19.8375297 1.01955357,19.7867472 L1.01955357,19.7867472 L1.01955357,17.2591494 C1.02004446,17.2072691 1.02626941,17.1556021 1.03811496,17.1050899 C1.0278964,17.0436882 1.02169609,16.9816852 1.01955357,16.9194759 C1.01955357,16.4336315 1.28822974,15.5366521 3.08636473,14.9798103 C3.32614762,14.8983829 3.59123561,14.953605 3.77855865,15.1240055 C3.96588169,15.2944061 4.04588181,15.5530972 3.98745381,15.7994961 C3.9290258,16.045895 3.74138911,16.2411221 3.4974996,16.3092701 C2.66270093,16.5677375 2.42836333,16.8623996 2.41073001,16.9278286 C2.4784791,17.1681986 3.63299777,17.8438333 5.83437903,17.8438333 C8.03576029,17.8438333 9.190743,17.1681986 9.25802805,16.9111233 C9.23853859,16.8563672 8.94851682,16.5120533 7.95873051,16.2489456 C7.71834417,16.1852018 7.53022495,15.9980555 7.46523555,15.7580029 C7.40024615,15.5179503 7.46826001,15.2614611 7.64365695,15.0851524 Z M25.5233771,21.3686419 C24.3942911,21.7254792 23.2150342,21.8978394 22.031051,21.8790803 C20.8940802,21.9000347 19.7613614,21.7345003 18.6779352,21.3890595 L18.6779352,21.3890595 L18.6779352,22.6131834 C18.6779352,22.6461298 18.7387238,22.7324403 18.8853588,22.7904447 C19.8931231,23.153894 20.9601836,23.3248377 22.031051,23.2943865 C23.1431228,23.3193841 24.2506225,23.1441269 25.3006404,22.7769877 C25.455164,22.7180552 25.5224491,22.6271044 25.5233771,22.5955501 L25.5233771,22.5955501 Z M2.41119405,21.3672498 L2.41119405,22.5941579 C2.41119405,22.6271044 2.47894313,22.7180552 2.6343948,22.7769877 C3.68436562,23.1443138 4.79189943,23.3195764 5.90398426,23.2943865 C6.97470074,23.3248457 8.04161067,23.1539008 9.04921238,22.7904447 L9.04921238,22.7904447 C9.19538335,22.7324403 9.25570788,22.6461298 9.25663595,22.6117913 L9.25663595,22.6117913 L9.25663595,21.3876674 C8.17337089,21.7331153 7.04080352,21.8986504 5.90398426,21.8776882 C4.71984363,21.8965298 3.5404209,21.7241683 2.41119405,21.3672498 L2.41119405,21.3672498 Z M25.521521,18.6067066 C24.4351208,19.046495 23.2705815,19.2605833 22.0988,19.2359378 L21.7085713,19.2353327 C20.6691952,19.2102344 19.6417649,18.9976407 18.6760791,18.6067066 L18.6760791,18.6067066 L18.6760791,19.8057726 C18.6760791,19.8391831 18.7368677,19.9250296 18.8835027,19.9830339 C19.8912669,20.3464832 20.9583274,20.517427 22.0291948,20.4869758 C23.1412824,20.5122062 24.2488234,20.3369424 25.2987843,19.9695769 C25.4542359,19.9106445 25.521521,19.8201577 25.521521,19.7867472 L25.521521,19.7867472 Z M9.25663595,18.6067066 C8.17025035,19.046545 7.00570061,19.2606352 5.833915,19.2359378 L5.44286409,19.2352801 C4.40377203,19.2100593 3.37663642,18.9974861 2.41119405,18.6067066 L2.41119405,18.6067066 L2.41119405,19.7867472 C2.41119405,19.8201577 2.47894313,19.9106445 2.6343948,19.9695769 C3.68430849,20.3371298 4.79188375,20.5123989 5.90398426,20.4869758 C6.97484759,20.5166918 8.04176186,20.3449592 9.04921238,19.9807137 C9.19631142,19.9227094 9.25663595,19.8368629 9.25663595,19.8034524 L9.25663595,19.8034524 Z M18.0152935,9.7366807 C18.3301392,9.51618187 18.7641176,9.59263187 18.9846623,9.90744552 L18.9846623,9.90744552 L23.1609758,15.8730774 C23.3104884,16.0765388 23.3380964,16.3450121 23.2331201,16.5746435 C23.1281438,16.8042749 22.9070464,16.9590521 22.6553549,16.9791026 C22.4036635,16.9991531 22.16085,16.8813325 22.0208422,16.6712173 L22.0208422,16.6712173 L17.8445287,10.7060495 C17.6240298,10.3912037 17.7004798,9.95722536 18.0152935,9.7366807 Z M8.94944489,9.90744552 C9.17186058,9.59792706 9.60184563,9.52485209 9.91402494,9.74351736 C10.2262042,9.96218264 10.3044615,10.3912548 10.0895785,10.7060495 L10.0895785,10.7060495 L5.91326495,16.6712173 C5.8074261,16.8224713 5.6458361,16.9254854 5.46404368,16.9575972 C5.28225126,16.9897089 5.09514829,16.9482878 4.94389618,16.8424462 C4.62908252,16.6219015 4.55263253,16.1879231 4.77313136,15.8730774 L4.77313136,15.8730774 Z M14.0705333,0.03 C16.3897795,0.03 18.8858228,0.754358379 18.8858228,2.34599787 C18.8837883,2.40819398 18.8777433,2.47019405 18.8677255,2.5316118 C18.8794449,2.58213628 18.8855146,2.63380642 18.8858228,2.68567137 L18.8858228,2.68567137 L18.8858228,5.23229455 C18.8858228,5.28148224 18.8788623,5.32788573 18.874222,5.37428921 C18.8813734,5.41334085 18.8852538,5.45292112 18.8858228,5.49261809 L18.8858228,5.49261809 L18.8858228,8.03970531 C18.8858228,8.42412435 18.5741896,8.73575756 18.1897706,8.73575756 C17.8053515,8.73575756 17.4937183,8.42412435 17.4937183,8.03970531 L17.4937183,8.03970531 L17.4937183,6.81511738 C16.4103808,7.16098585 15.2776166,7.32668358 14.1406026,7.3056022 C12.956463,7.32442756 11.7770429,7.15206644 10.6478124,6.79516388 L10.6478124,6.79516388 L10.6478124,8.02253602 C10.6478124,8.05548249 10.7155615,8.14596929 10.8714772,8.20536574 C11.9213527,8.57239051 13.0287073,8.74749245 14.1406026,8.72230055 C14.5250216,8.72230055 14.8366549,9.03393376 14.8366549,9.41835281 C14.8366549,9.80277185 14.5250216,10.1144051 14.1406026,10.1144051 C12.860346,10.1397185 11.5860054,9.93411374 10.3786722,9.50744749 C9.73035409,9.2953374 9.28242247,8.70229074 9.25570788,8.02067988 L9.25570788,8.02067988 L9.25570788,5.49261809 C9.25623961,5.44978006 9.2605878,5.40707463 9.26870085,5.36500851 C9.2615988,5.31470431 9.2572613,5.26404843 9.25570788,5.21326912 L9.25570788,5.21326912 L9.25570788,2.68567137 C9.25616829,2.63378911 9.26239363,2.58211873 9.27426927,2.5316118 C9.26408186,2.47020604 9.25788176,2.40820499 9.25570788,2.34599787 C9.25570788,0.754358379 11.7512872,0.03 14.0705333,0.03 Z M16.3554409,8.53947083 C16.5835215,8.49875965 16.8171588,8.5714468 16.9818879,8.73436546 C17.1132653,8.86404477 17.1868631,9.04118117 17.1860697,9.22577835 C17.1857726,9.316515 17.1684584,9.40639144 17.1350194,9.49074224 C17.097876,9.57502287 17.046023,9.65201679 16.9818879,9.71811931 C16.8514021,9.84852157 16.6744867,9.92179122 16.490011,9.92183552 C16.3988982,9.92218661 16.3087467,9.90320734 16.2255111,9.86614642 C16.1402523,9.83314752 16.0628116,9.78273206 15.998134,9.71811931 C15.8681743,9.58711106 15.7948543,9.4103099 15.7939523,9.22577835 C15.7931589,9.04118117 15.8667566,8.86404477 15.998134,8.73436546 C16.0303854,8.70103328 16.0661726,8.67131436 16.1048621,8.6457348 C16.1426089,8.61990398 16.1830653,8.59827533 16.2255111,8.58123396 C16.2670298,8.5622566 16.3106406,8.54823887 16.3554409,8.53947083 Z M17.4937183,4.03508467 C15.2887492,4.87344122 12.8527815,4.87344122 10.6478124,4.03508467 L10.6478124,4.03508467 L10.6478124,5.21512526 C10.6478124,5.24807173 10.7155615,5.33855853 10.8714772,5.39749095 C11.9212054,5.7651859 13.0286265,5.94061272 14.1406026,5.91535383 C15.2113191,5.94581297 16.278229,5.77486812 17.2858307,5.411412 C17.4324657,5.35340764 17.4937183,5.26709716 17.4937183,5.23275858 L17.4937183,5.23275858 Z M14.0695536,1.423 L13.8013865,1.42693639 C11.7761445,1.47907284 10.7122552,2.10984281 10.6468843,2.35620663 C10.7146334,2.59611264 11.8696161,3.27174737 14.0705333,3.27174737 C16.2482488,3.27174737 17.4023035,2.61049772 17.4918622,2.34738997 C17.4018394,2.08474625 16.2477848,1.42349661 14.0705333,1.42349661 L14.0695536,1.423 Z" id="分布式数据库" fill="#55FDE2" fill-rule="nonzero"></path>
    </g>
</svg>