<?xml version="1.0" encoding="UTF-8"?>
<svg width="26px" height="27px" viewBox="0 0 26 27" version="1.1" xmlns="http://www.w3.org/2000/svg" xmlns:xlink="http://www.w3.org/1999/xlink">
    <title>分布式缓存</title>
    <g id="页面-1" stroke="none" stroke-width="1" fill="none" fill-rule="evenodd">
        <path d="M13.5,23.5878882 L16.3846154,23.5878882 L16.3846154,26.5151515 L13.5,26.5151515 L13.5,23.5878882 Z M13.5,19.6848703 L16.3846154,19.6848703 L16.3846154,22.6121337 L13.5,22.6121337 L13.5,19.6848703 Z M13.5,15.7818525 L16.3846154,15.7818525 L16.3846154,18.7091159 L13.5,18.7091159 L13.5,15.7818525 Z M17.3461538,23.5878882 L20.2307692,23.5878882 L20.2307692,26.5151515 L17.3461538,26.5151515 L17.3461538,23.5878882 Z M17.3461538,19.6848703 L20.2307692,19.6848703 L20.2307692,22.6121337 L17.3461538,22.6121337 L17.3461538,19.6848703 Z M21.1923077,23.5878882 L24.0769231,23.5878882 L24.0769231,26.5151515 L21.1923077,26.5151515 L21.1923077,23.5878882 Z M23.1153846,14.8060981 L26,14.8060981 L26,17.7333614 L23.1153846,17.7333614 L23.1153846,14.8060981 Z M23.2317308,18.7091159 L25.2721154,20.7786911 L23.2317308,22.849242 L21.1923077,20.7777153 L23.2317308,18.7091159 Z M19.3855769,14.8060981 L21.4259615,16.8756733 L19.3855769,18.9462242 L17.3461538,16.8746975 L19.3855769,14.8060981 Z M11.6403846,23.6757061 L11.6403846,24.6514605 L6.76923077,26.4985637 L6.76923077,9.91073798 L20.2307692,3.82593321 L20.2307692,12.6077233 L19.2692308,12.9463101 L19.2692308,5.14027446 L7.73076923,10.5479056 L7.73076923,25.1842224 L11.6403846,23.6757061 Z M5.80769231,22.9341327 L5.80769231,23.9098871 L3.88461538,24.5851092 L3.88461538,7.9972835 L17.3461538,1.91247873 L17.3461538,3.86398764 L16.3846154,4.20257443 L16.3846154,3.22681998 L4.84615385,8.63542691 L4.84615385,23.2717437 L5.80769231,22.9331569 L5.80769231,22.9341327 Z M2.92307692,21.0206782 L2.92307692,21.9964326 L1,22.6726305 L1,6.08480477 L14.4615385,2.27373675e-13 L14.4615385,1.95150891 L13.5,2.28911995 L13.5,1.31336549 L1.96153846,6.72197243 L1.96153846,21.3582892 L2.92307692,21.0206782 Z" id="分布式缓存" fill="#55FDE2" fill-rule="nonzero"></path>
    </g>
</svg>