<?xml version="1.0" encoding="UTF-8"?>
<svg width="25px" height="28px" viewBox="0 0 25 28" version="1.1" xmlns="http://www.w3.org/2000/svg" xmlns:xlink="http://www.w3.org/1999/xlink">
    <title>微服务网关</title>
    <g id="页面-1" stroke="none" stroke-width="1" fill="none" fill-rule="evenodd">
        <path d="M2.73185714,17.199 L2.73185714,19.503 L12.8392857,25.3315714 L18.9832857,21.7932857 L19.8335714,23.2744286 L12.8392857,27.3064286 L1.01757143,20.4904286 L1.01757143,17.199 L2.73185714,17.199 Z M12.8392857,3.951 L12.8392857,6.17271429 C8.71128571,6.17271429 5.35128571,9.519 5.35128571,13.6607143 C5.35128571,17.8024286 8.69757143,21.1487143 12.8392857,21.1487143 L12.8255714,21.148 L12.8255714,21.1624286 L12.8385714,21.162 L12.8392857,23.3704286 L4.405,18.5018571 L4.405,8.79214286 L12.8392857,3.951 Z M17.653,2.799 L24.661,6.831 L24.661,20.4904286 L21.8084286,22.1361429 L20.9581429,20.655 L22.9467143,19.503 L22.9467143,7.83214286 L16.8027143,4.28014286 L17.653,2.799 Z M12.8392857,6.17271429 C16.981,6.17271429 20.3272857,9.519 20.3136134,13.6744286 C20.3136134,17.8024286 16.9672857,21.1624286 12.8255714,21.1624286 L12.8385714,21.162 L12.8392857,21.1487143 L12.8255714,21.148 L12.8255714,19.7224286 C12.8277048,19.7215397 12.8298934,19.7205609 12.8321365,19.7194916 C12.6763605,19.6393712 12.176102,19.0332857 11.7695714,17.6104286 C12.1261429,17.5692857 12.4827143,17.5418571 12.8392857,17.5418571 L12.8325714,17.541 L12.8255714,17.5418571 L12.8262693,16.1022554 C12.3780367,16.1161011 11.929804,16.1436574 11.4815714,16.2115714 C11.3992857,15.6081429 11.3307143,15.0047143 11.317,14.3875714 L11.317,14.3875714 L12.8392857,14.3875714 L12.8392857,16.1018571 C12.8379507,16.1018976 12.8366157,16.1019382 12.8352807,16.1019789 C13.2841504,16.1022231 13.7337181,16.1297408 14.1832857,16.1978571 C14.2792857,15.5944286 14.3341429,14.991 14.3615714,14.3738571 L14.3615714,14.3738571 L12.8392857,14.3738571 L12.8392857,12.9475714 L14.3752857,12.9475714 C14.3478571,12.3441429 14.293,11.727 14.197,11.1235714 C13.7444286,11.1921429 13.2918571,11.2195714 12.8392857,11.2195714 L12.8392857,11.2195714 L12.8392857,9.77957143 C13.1958571,9.77957143 13.5524286,9.76585714 13.909,9.711 C13.4975714,8.271 12.9901429,7.66757143 12.8392857,7.61271429 L12.8392857,7.61271429 Z M12.8392857,17.5418571 L12.8380237,19.716542 C13.0138666,19.6243183 13.4937619,19.0157619 13.8952857,17.6104286 C13.5387143,17.5692857 13.1821429,17.5418571 12.8255714,17.5418571 L12.8392857,17.5418571 Z M10.357,17.9395714 C10.4941429,18.4332857 10.6587143,18.927 10.8781429,19.3932857 C10.261,19.1738571 9.685,18.8584286 9.16385714,18.4607143 C9.54785714,18.255 9.94557143,18.0767143 10.357,17.9395714 Z M15.2941429,17.9258571 C15.157,18.4195714 14.9924286,18.9132857 14.773,19.3795714 C15.4038571,19.1601429 15.9935714,18.8447143 16.5147143,18.447 C16.117,18.2412857 15.7192857,18.063 15.2941429,17.9258571 Z M18.8461429,14.3601429 L15.8015714,14.3601429 C15.7741429,15.087 15.7055714,15.8001429 15.5958571,16.5132857 C16.2815714,16.7327143 16.9535714,17.0344286 17.5707143,17.4047143 L17.5707143,17.4047143 L17.5707143,17.4184286 C18.2701429,16.5407143 18.7227143,15.4847143 18.8461429,14.3601429 L18.8461429,14.3601429 Z M9.89071429,14.3738571 C9.90442857,15.087 9.973,15.8138571 10.0964286,16.5132857 C9.397,16.7327143 8.725,17.0344286 8.10785714,17.4184286 C7.40842857,16.5407143 6.96957143,15.4847143 6.83242857,14.3738571 L6.83242857,14.3738571 Z M12.8392857,0.015 L15.6644286,1.647 L14.8141429,3.12814286 L12.8392857,1.98985714 L2.73185714,7.83214286 L2.73185714,14.9087143 L1.01757143,14.9087143 L1.01757143,6.831 L12.8392857,0.015 Z M8.09414286,9.91671429 C8.725,10.287 9.38328571,10.5887143 10.0827143,10.8081429 C9.973,11.5212857 9.90442857,12.2344286 9.877,12.9612857 L9.877,12.9612857 L6.81871429,12.9612857 C6.95585714,11.8504286 7.39471429,10.7944286 8.09414286,9.91671429 Z M17.5707143,9.88928571 C16.9535714,10.2732857 16.2952857,10.575 15.5958571,10.7944286 C15.7055714,11.5075714 15.7741429,12.207 15.8015714,12.9201429 L15.8015714,12.9201429 L18.8461429,12.9475714 C18.7227143,11.823 18.2838571,10.767 17.5707143,9.88928571 Z M11.4815714,11.1235714 C11.9341429,11.1921429 12.3867143,11.2332857 12.8392857,11.2332857 L12.8392857,11.2332857 L12.8392857,12.9475714 L11.317,12.9475714 C11.3307143,12.3441429 11.3855714,11.727 11.4815714,11.1235714 Z M12.8392857,7.61271429 L12.8392857,9.77957143 C12.4827143,9.77957143 12.1261429,9.75214286 11.7695714,9.711 C12.181,8.22985714 12.7021429,7.64014286 12.8392857,7.61271429 L12.8392857,7.61271429 Z M14.773,7.94185714 C14.9924286,8.40814286 15.157,8.88814286 15.2941429,9.38185714 C15.7192857,9.24471429 16.1307143,9.06642857 16.5147143,8.86071429 C15.9798571,8.463 15.4038571,8.16128571 14.773,7.94185714 Z M10.9055714,7.94185714 C10.6998571,8.40814286 10.5215714,8.90185714 10.4118571,9.38185714 C9.98671429,9.24471429 9.57528571,9.06642857 9.19128571,8.86071429 C9.71242857,8.463 10.2884286,8.16128571 10.9055714,7.94185714 Z" id="微服务网关" fill="#54FCE2" fill-rule="nonzero"></path>
    </g>
</svg>