<?xml version="1.0" encoding="UTF-8"?>
<svg width="24px" height="29px" viewBox="0 0 24 29" version="1.1" xmlns="http://www.w3.org/2000/svg" xmlns:xlink="http://www.w3.org/1999/xlink">
    <title>思特奇</title>
    <defs>
        <polygon id="path-1" points="8.07259608e-05 4.95108638e-05 16.2554854 4.95108638e-05 16.2554854 15.3497772 8.07259608e-05 15.3497772"></polygon>
        <polygon id="path-3" points="5.67824326 12.4608636 22.0914775 12.4608636 22.0914775 27.9436688 5.67824326 27.9436688"></polygon>
    </defs>
    <g id="页面-1" stroke="none" stroke-width="1" fill="none" fill-rule="evenodd">
        <g id="思特奇" transform="translate(0.999910, 0.384599)">
            <mask id="mask-2" fill="white">
                <use xlink:href="#path-1"></use>
            </mask>
            <g id="Clip-2"></g>
            <path d="M15.9707892,1.20457178 C16.4866394,0.690098094 16.1438864,0.269227649 16.1438864,0.269227649 C16.1438864,0.269227649 15.9346556,-0.200853323 15.1459107,0.101292426 C12.5680362,1.08481469 8.51866372,3.00505761 4.92595117,6.67210214 C2.07896737,9.57724384 0.784007851,12.534005 0.108137406,14.4084787 C0.108137406,14.4112317 -0.260769476,14.9604625 0.364169795,15.3070009 C0.619169795,15.4470617 1.05208477,15.2137418 1.31190259,15.031009 C2.32054631,14.3155637 3.47131554,13.6180131 5.12210502,13.2067783 C6.40364348,12.8870819 7.48111311,12.8268592 8.31184186,12.8003613 C9.59338032,12.7552803 10.0166597,12.326839 10.0166597,12.326839 C10.0166597,12.326839 10.4722872,11.994754 10.7561941,10.9472236 C11.0844937,9.74414668 11.5194734,8.2027904 12.5742305,6.10669728 C13.6382791,3.97963251 14.8668216,2.30853939 15.9707892,1.20457178" id="Fill-1" fill="#55FDE2" mask="url(#mask-2)"></path>
            <mask id="mask-4" fill="white">
                <use xlink:href="#path-3"></use>
            </mask>
            <g id="Clip-4"></g>
            <path d="M5.89391878,26.8381973 C5.46478923,27.3106872 5.80857465,27.7549584 5.80857465,27.7549584 C5.80857465,27.7549584 6.1234532,28.0553835 6.55051797,27.8981163 C9.14250178,26.9476305 13.6657406,24.9334402 17.2646475,21.0740272 C20.0407406,18.0997155 21.3666718,15.2840475 22.0222386,13.3992499 C22.2400726,12.764675 21.8756394,12.5864159 21.8694451,12.5853835 C21.8694451,12.5853835 21.523939,12.2636224 20.9592224,12.6545536 C19.943352,13.3534807 18.7154977,14.0678936 17.0660848,14.4791285 C15.7817933,14.7995131 15.0546475,14.9302823 14.2239188,14.9571244 C12.9430686,15.0018613 12.4850321,15.3219017 12.4850321,15.3219017 C12.4850321,15.3219017 11.7795666,15.6378127 11.4956597,16.6839665 C11.1673601,17.8887641 10.6022993,19.4579949 9.54788639,21.5530556 C8.48005239,23.6811527 6.94351392,25.6839868 5.89391878,26.8381973" id="Fill-3" fill="#55FDE2" mask="url(#mask-4)"></path>
        </g>
    </g>
</svg>