<?xml version="1.0" encoding="UTF-8"?>
<svg width="22px" height="21px" viewBox="0 0 22 21" version="1.1" xmlns="http://www.w3.org/2000/svg" xmlns:xlink="http://www.w3.org/1999/xlink">
    <title>数据库</title>
    <g id="页面-1" stroke="none" stroke-width="1" fill="none" fill-rule="evenodd">
        <path d="M21.1173717,13.0200012 C21.329477,12.8242117 21.66667,12.9656152 21.66667,13.2538609 L21.66667,13.2538609 L21.66667,17.4035104 C21.66667,19.2036859 17.038424,20.6666685 11.3333357,20.6666685 C5.6282475,20.6666685 1.00000072,19.2036859 1.00000072,17.4035104 L1.00000072,17.4035104 L1.00000072,13.2538609 C0.999726456,13.1236652 1.07737777,13.0059398 1.19716908,12.9549396 C1.3169604,12.9039393 1.45564141,12.9295628 1.54929973,13.0200012 C2.93614196,14.3035101 6.79210725,15.2280716 11.3333357,15.2280716 C15.8745642,15.2280716 19.7305295,14.3035101 21.1173717,13.0200012 Z M21.1173717,5.94982509 C21.329477,5.75403562 21.66667,5.89543913 21.66667,6.18368478 L21.66667,6.18368478 L21.66667,10.3333343 C21.66667,12.1335099 17.038424,13.5964925 11.3333357,13.5964925 C5.6282475,13.5964925 1.00000072,12.1335099 1.00000072,10.3333343 L1.00000072,10.3333343 L1.00000072,6.18368478 C0.999726446,6.05348911 1.07737775,5.93576375 1.19716907,5.88476348 C1.31696039,5.83376321 1.45564141,5.85938668 1.54929973,5.94982509 C2.93614196,7.23333399 6.79210725,8.15789549 11.3333357,8.15789549 C15.8745642,8.15789549 19.7305295,7.23333399 21.1173717,5.94982509 Z M11.3333357,0 C17.0402787,0 21.66667,1.46096569 21.66667,3.26315819 C21.66667,4.42897234 19.6971477,5.50622905 16.5000015,6.08913613 C13.3028581,6.67204321 9.36381332,6.67204321 6.16666854,6.08913613 C2.96952377,5.50622905 1.00000145,4.42897234 1.00000145,3.26315819 C1.00000145,1.46096569 5.62639279,0 11.3333357,0 Z" id="数据库" fill="#55FDE2" fill-rule="nonzero"></path>
    </g>
</svg>