<?xml version="1.0" encoding="UTF-8"?>
<svg width="25px" height="24px" viewBox="0 0 25 24" version="1.1" xmlns="http://www.w3.org/2000/svg" xmlns:xlink="http://www.w3.org/1999/xlink">
    <title>服务器</title>
    <g id="页面-1" stroke="none" stroke-width="1" fill="none" fill-rule="evenodd">
        <path d="M21.3389831,17.7355932 C22.2067797,17.7355932 22.8576271,18.4406779 22.8576271,19.3084746 C22.8576271,20.1762712 22.0983051,20.8813559 21.2305085,20.8813559 C21.0677966,20.8813559 20.959322,20.8813559 20.8508475,20.8271186 C18.7898305,22.7254237 15.9694915,23.8644068 12.9322034,23.8644068 C9.35254236,23.8644068 6.09830508,22.2915254 3.92881356,19.7966102 L3.92881356,19.7966102 L5.39322034,18.9830508 C7.29152541,20.9898305 10.0033898,22.2915254 12.9864407,22.2915254 C15.5898305,22.2915254 17.9762712,21.3152542 19.7661017,19.7423729 C19.7661017,19.579661 19.7118644,19.4711864 19.7118644,19.3084746 C19.7118644,18.440678 20.4711864,17.7355932 21.3389831,17.7355932 Z M15.4271186,15.6745763 C15.6440678,15.8915254 15.9694915,16 16.3491525,16 L16.3491525,16 L16.4576271,16 C16.7288135,17.3559322 16.7830508,18.440678 16.7288135,19.2542373 C15.6440678,19.8508474 14.3423729,20.1762712 12.9864407,20.1220339 C11.6305085,20.1220339 10.3288136,19.7966102 9.1898305,19.2 C9.40677964,19.0915254 9.56949151,18.9288136 9.73220337,18.820339 C11.9016949,17.138983 13.9084746,16.2169491 15.4271186,15.6745763 Z M9.56949151,12.2576271 C10.6,12.8 11.7932203,13.3966102 13.2033898,13.8847458 C13.7457627,14.1016949 14.3423729,14.2644068 14.8847458,14.4271186 L14.8847458,14.4271186 L14.8847458,14.5898305 C14.8847458,14.6983051 14.938983,14.8067796 14.938983,14.9152542 C13.3661017,15.4576271 11.359322,16.4338983 9.13559322,18.1152542 C8.86440677,18.2779661 8.64745763,18.4949153 8.37627118,18.7118644 C7.29152541,17.9525424 6.42372881,16.9762712 5.77288135,15.7830508 C6.26101694,14.9152542 6.9661017,13.7762712 7.99661017,12.5830508 C8.15932203,12.6372881 8.3220339,12.6915254 8.53898304,12.6915254 C8.91864405,12.6915254 9.29830506,12.5288136 9.56949151,12.2576271 Z M20.6338983,15.0237288 C20.0372881,16.5423729 19.0067796,17.7898305 17.7050847,18.7118644 C17.7050847,17.8983051 17.5966101,16.8677966 17.379661,15.6745763 C17.5423729,15.5118644 17.6508474,15.3491525 17.759322,15.1322034 C18.138983,15.0237288 18.4101695,15.0237288 18.5728814,15.0237288 L18.5728814,15.0237288 Z M10.8711864,0.759322017 L10.8711864,2.38644066 C6.26101694,3.36271187 2.78983051,7.37627118 2.78983051,12.2033898 C2.78983051,12.9084746 2.89830507,13.5050847 3.00677965,14.1559322 C3.71186442,14.3186441 4.25423729,14.9152542 4.25423729,15.6745763 C4.25423729,16.5423729 3.49491525,17.2474576 2.62711864,17.2474576 C1.70508474,17.2474576 1,16.5423729 1,15.6745763 C1,15.2406779 1.16271184,14.8610169 1.43389829,14.5898305 C1.27118645,13.8305085 1.16271186,13.0169492 1.16271186,12.2033898 C1.16271186,6.50847458 5.33898303,1.7355932 10.8711864,0.759322017 L10.8711864,0.759322017 Z M15.1559322,4.26325641e-14 C15.9152542,4.26325641e-14 16.5118644,0.488135593 16.7288135,1.13898305 C21.4474576,2.65762711 24.8644068,7.05084745 24.8644068,12.2033898 C24.8644068,13.559322 24.5932203,14.9152542 24.159322,16.1084746 L24.159322,16.1084746 L22.7491525,15.2949153 C23.0745763,14.3186441 23.2372881,13.2881356 23.2372881,12.2033898 C23.2372881,7.81016949 20.3627119,4.06779661 16.2949153,2.65762711 C16.0237288,2.98305084 15.5898305,3.1457627 15.1559322,3.1457627 C14.2338983,3.1457627 13.5288136,2.44067794 13.5288136,1.57288134 C13.5288136,0.705084737 14.2881356,4.26325641e-14 15.1559322,4.26325641e-14 Z M5.5559322,9.22033897 C5.93559321,9.65423728 6.47796608,10.1423729 7.23728813,10.6847457 C7.18305082,10.8474576 7.12881354,11.0101695 7.12881354,11.2271186 C7.12881357,11.4983051 7.23728813,11.7694915 7.34576271,11.9864407 C6.53220339,12.9627118 5.88135593,13.8847458 5.39322034,14.6983051 C5.12203389,13.9389831 4.95932203,13.0711864 4.95932203,12.2033898 C4.95932203,11.1728813 5.17627119,10.1423729 5.5559322,9.22033897 Z M18.5186441,6.39999999 C20.1457627,7.81016949 21.1220339,9.92542373 21.1220339,12.2033898 C21.1220339,12.8542373 21.0135593,13.4508475 20.959322,14.1559322 C20.3627119,14.1559322 19.6033898,14.2101695 18.7898305,14.1559322 C18.4644068,14.1559322 18.138983,14.1559322 17.8135593,14.1016949 C17.5966102,13.6677966 17.2169492,13.3423729 16.7830508,13.2338983 C16.5661017,12.5830508 16.2949153,11.8779661 16.0237288,11.1728813 C15.5898305,10.1966102 15.1559322,9.32881355 14.6677966,8.56949151 C14.8305084,8.29830508 14.938983,8.02711864 14.938983,7.70169491 L14.938983,7.70169491 L14.938983,7.53898304 C16.4576271,6.88813558 17.7050847,6.56271186 18.5186441,6.39999999 Z M12.5525424,8.84067796 C12.8237288,9.0576271 13.1491525,9.16610169 13.4745763,9.16610169 C13.6372881,9.16610169 13.7457627,9.16610169 13.9084746,9.11186441 C14.3423729,9.81694914 14.7762712,10.6305085 15.1559322,11.4983051 C15.4271187,12.0949152 15.6440678,12.6915254 15.8067797,13.2881356 C15.6440678,13.3423729 15.4813559,13.4508474 15.3186441,13.6135593 C14.7220339,13.4508474 14.1254237,13.2881356 13.5288136,13.0711864 C12.1728813,12.5830508 10.979661,11.9864407 10.0033898,11.4983051 L10.0033898,11.4983051 L10.0033898,11.2813559 C10.0033898,11.1186441 9.94915252,10.9016949 9.89491524,10.7389831 L9.89491524,10.7389831 L10.7084746,10.0881356 C11.359322,9.6 11.9559322,9.22033897 12.5525424,8.84067796 Z M10.1661017,4.77288135 C10.7627119,5.20677966 11.4677966,5.9118644 12.2813559,6.83389831 C12.1186441,7.10508473 12.0101695,7.37627118 12.0101695,7.70169491 C12.0101695,7.86440677 12.0101695,7.97288133 12.0644068,8.08135592 C11.4677966,8.46101692 10.8169491,8.89491524 10.1661017,9.38305083 L10.1661017,9.38305083 L9.35254236,10.0338983 C9.13559319,9.87118642 8.86440677,9.81694914 8.59322032,9.81694914 C8.3220339,9.81694914 8.05084745,9.9254237 7.83389831,10.0338983 C6.96610168,9.38305083 6.3694915,8.78644068 5.98983049,8.35254236 C6.9118644,6.72542372 8.37627118,5.42372881 10.1661017,4.77288135 Z M13.040678,4.23050847 C14.7220339,4.23050847 16.2949153,4.77288135 17.5966102,5.64067795 C16.7830508,5.85762712 15.7525424,6.18305085 14.559322,6.72542372 C14.2881356,6.39999999 13.9084746,6.23728813 13.4745763,6.23728813 C13.3118644,6.23728813 13.2033898,6.23728813 13.040678,6.29152541 C12.3898305,5.53220339 11.7389831,4.93559321 11.2508475,4.44745762 C11.7932203,4.28474575 12.4440678,4.23050847 13.040678,4.23050847 Z" id="服务器" fill="#58FFE3" fill-rule="nonzero"></path>
    </g>
</svg>