<?xml version="1.0" encoding="UTF-8"?>
<svg width="27px" height="23px" viewBox="0 0 27 23" version="1.1" xmlns="http://www.w3.org/2000/svg" xmlns:xlink="http://www.w3.org/1999/xlink">
    <title>机房</title>
    <g id="页面-1" stroke="none" stroke-width="1" fill="none" fill-rule="evenodd">
        <path d="M14.4834056,0.0473616727 C14.6997169,-0.0247421049 15.0602358,-0.0247421049 15.2765471,0.11946545 L15.2765471,0.11946545 L25.8758018,5.31093712 C26.2363207,5.52724845 26.452632,5.88776731 26.452632,6.24828617 L26.452632,6.24828617 L26.452632,18.0012012 C26.452632,18.4338239 26.2363207,18.8664465 25.803698,19.0106541 L25.803698,19.0106541 L15.2044434,22.7600503 L14.6276132,22.7600503 L1.86524528,20.1643145 C1.36051886,20.0201069 1,19.5874843 1,19.0827578 L1,19.0827578 L1,5.3830409 C1,4.95041826 1.28841508,4.51779562 1.72103772,4.37358806 L1.72103772,4.37358806 Z M15.8533773,1.48943714 L15.8533773,21.3900786 L18.8817358,20.2364182 L18.9538396,20.2364182 L18.9538396,3.00361637 L15.8533773,1.48943714 Z M19.8911886,3.50834278 L19.8911886,19.8758993 L22.1985094,19.0827578 L22.1985094,4.66200317 L19.8911886,3.50834278 Z" id="机房" fill="#58FFE3" fill-rule="nonzero"></path>
    </g>
</svg>