<?xml version="1.0" encoding="UTF-8"?>
<svg width="20px" height="26px" viewBox="0 0 20 26" version="1.1" xmlns="http://www.w3.org/2000/svg" xmlns:xlink="http://www.w3.org/1999/xlink">
    <title>机柜</title>
    <g id="页面-1" stroke="none" stroke-width="1" fill="none" fill-rule="evenodd">
        <path d="M17.3333336,6.21724894e-14 C18.616667,6.21724894e-14 19.666667,1.05000002 19.666667,2.33333337 L19.666667,2.33333337 L19.666667,21.5833337 C19.666667,22.8666671 18.616667,23.9166671 17.3333336,23.9166671 L17.3333336,23.9166671 L16.7500003,23.9166671 L16.7500003,24.5000005 C16.7500003,25.1416671 16.2250003,25.6666671 15.5833336,25.6666671 L13.8333336,25.6666671 C13.1916669,25.6666671 12.6666669,25.1416671 12.6666669,24.5000005 L12.6666669,23.9166671 L8.00000013,23.9166671 L8.00000013,24.5000005 C8.00000013,25.1416671 7.47500012,25.6666671 6.83333343,25.6666671 L5.0833334,25.6666671 C4.44166671,25.6666671 3.9166667,25.1416671 3.9166667,24.5000005 L3.9166667,23.9166671 L3.33333337,23.9166671 C2.05000002,23.9166671 1,22.8666671 1,21.5833337 L1,21.5833337 L1,2.33333337 C1,1.05000002 2.05000002,6.21724894e-14 3.33333337,6.21724894e-14 L3.33333337,6.21724894e-14 Z M16.75,1.75000003 L3.9166667,1.75000003 C3.27500004,1.75000003 2.75000003,2.27500002 2.75000003,2.9166667 L2.75000003,2.9166667 L2.75000003,21.0000004 C2.75000003,21.6416671 3.27500002,22.1666671 3.9166667,22.1666671 L3.9166667,22.1666671 L16.75,22.1666671 C17.391667,22.1666671 17.916667,21.6416671 17.916667,21.0000004 L17.916667,21.0000004 L17.916667,2.9166667 C17.916667,2.27500004 17.391667,1.75000003 16.75,1.75000003 L16.75,1.75000003 Z M16.1666669,15.7500003 L16.1666669,19.2500003 C16.1666669,19.6000004 15.9333336,19.8333337 15.5833336,19.8333337 L15.5833336,19.8333337 L5.0833334,19.8333337 C4.73333339,19.8333337 4.50000007,19.6000004 4.50000007,19.2500003 L4.50000007,19.2500003 L4.50000007,15.7500003 L16.1666669,15.7500003 Z M10.0416668,16.916667 C9.57500013,16.916667 9.1666668,17.3250003 9.1666668,17.791667 C9.1666668,18.2583337 9.57500013,18.666667 10.0416668,18.666667 C10.5083335,18.666667 10.9166668,18.2583337 10.9166668,17.791667 C10.9166668,17.3250003 10.5083335,16.916667 10.0416668,16.916667 Z M7.12500012,16.916667 C6.65833343,16.916667 6.2500001,17.3250003 6.2500001,17.791667 C6.2500001,18.2583337 6.65833343,18.666667 7.12500012,18.666667 C7.5916668,18.666667 8.00000013,18.2583337 8.00000013,17.791667 C8.00000013,17.3250003 7.5916668,16.916667 7.12500012,16.916667 Z M16.1666669,9.91666684 L16.1666669,14.0000003 L4.50000007,14.0000003 L4.50000007,9.91666684 L16.1666669,9.91666684 Z M10.0416668,11.0833335 C9.57500013,11.0833335 9.1666668,11.4916669 9.1666668,11.9583335 C9.1666668,12.4250002 9.57500013,12.8333336 10.0416668,12.8333336 C10.5083335,12.8333336 10.9166668,12.4250002 10.9166668,11.9583335 C10.9166668,11.4916669 10.5083335,11.0833335 10.0416668,11.0833335 Z M7.12500012,11.0833335 C6.65833343,11.0833335 6.2500001,11.4916669 6.2500001,11.9583335 C6.2500001,12.4250002 6.65833343,12.8333336 7.12500012,12.8333336 C7.5916668,12.8333336 8.00000013,12.4250002 8.00000013,11.9583335 C8.00000013,11.4916669 7.5916668,11.0833335 7.12500012,11.0833335 Z M15.5833336,4.0833334 C15.9333336,4.0833334 16.1666669,4.31666673 16.1666669,4.66666674 L16.1666669,4.66666674 L16.1666669,8.1666668 L4.50000007,8.1666668 L4.50000007,4.66666674 C4.50000007,4.31666673 4.73333339,4.0833334 5.0833334,4.0833334 L5.0833334,4.0833334 Z M7.12500012,5.2500001 C6.65833343,5.2500001 6.2500001,5.65833343 6.2500001,6.12500012 C6.2500001,6.5916668 6.65833343,7.00000013 7.12500012,7.00000013 C7.5916668,7.00000013 8.00000013,6.5916668 8.00000013,6.12500012 C8.00000013,5.65833343 7.5916668,5.2500001 7.12500012,5.2500001 Z M10.0416668,5.2500001 C9.57500013,5.2500001 9.1666668,5.65833343 9.1666668,6.12500012 C9.1666668,6.5916668 9.57500013,7.00000013 10.0416668,7.00000013 C10.5083335,7.00000013 10.9166668,6.5916668 10.9166668,6.12500012 C10.9166668,5.65833343 10.5083335,5.2500001 10.0416668,5.2500001 Z" id="机柜" fill="#54FDE3" fill-rule="nonzero"></path>
    </g>
</svg>