<?xml version="1.0" encoding="UTF-8"?>
<svg width="20px" height="20px" viewBox="0 0 20 20" version="1.1" xmlns="http://www.w3.org/2000/svg" xmlns:xlink="http://www.w3.org/1999/xlink">
    <title>物理机</title>
    <g id="页面-1" stroke="none" stroke-width="1" fill="none" fill-rule="evenodd">
        <g id="物理机">
            <path d="M1.34375,5.20525149 L18.20775,5.20525149 C18.94375,5.20525149 19.53575,4.67725149 19.53575,4.00525149 L19.53575,1.20525149 C19.53575,0.53325149 18.92775,0.00525149027 18.20775,0.00525149027 L1.34375,0.00525149027 C0.60775,-0.0587485097 0.01575,0.46925149 0.01575,1.20525149 L0.01575,4.00525149 C0.01575,4.67725149 0.60775,5.20525149 1.34375,5.20525149 Z" id="路径" fill="#55FDE2" fill-rule="nonzero"></path>
            <path d="M2.81575,1.20525149 C3.55175,1.20525149 4.07975,1.81325149 4.07975,2.46925149 C4.07975,3.20525149 3.47175,3.73325149 2.81575,3.73325149 C2.15975,3.73325149 1.55175,3.12525149 1.55175,2.46925149 C1.55175,1.81325149 2.14375,1.20525149 2.81575,1.20525149 Z" id="路径" fill="#001227" fill-rule="nonzero"></path>
            <path d="M1.34375,12.0692515 L18.20775,12.0692515 C18.94375,12.0692515 19.53575,11.5412515 19.53575,10.8692515 L19.53575,8.06925149 C19.53575,7.39725149 18.92775,6.86925149 18.20775,6.86925149 L1.34375,6.86925149 C0.60775,6.86925149 0.01575,7.39725149 0.01575,8.06925149 L0.01575,10.8692515 C0.01575,11.4772515 0.60775,12.0692515 1.34375,12.0692515 Z" id="路径" fill="#55FDE2" fill-rule="nonzero"></path>
            <path d="M2.81575,8.13325149 C3.55175,8.13325149 4.07975,8.74125149 4.07975,9.39725149 C4.07975,10.1332515 3.47175,10.6612515 2.81575,10.6612515 C2.15975,10.6612515 1.55175,10.0532515 1.55175,9.39725149 C1.55175,8.67725149 2.14375,8.13325149 2.81575,8.13325149 Z" id="路径" fill="#001227" fill-rule="nonzero"></path>
            <rect id="矩形" fill="#55FDE2" x="5.32907052e-15" y="13.9725015" width="19.5" height="5.5" rx="1"></rect>
        </g>
    </g>
</svg>