<?xml version="1.0" encoding="UTF-8"?>
<svg width="21px" height="24px" viewBox="0 0 21 24" version="1.1" xmlns="http://www.w3.org/2000/svg" xmlns:xlink="http://www.w3.org/1999/xlink">
    <title>组件</title>
    <g id="页面-1" stroke="none" stroke-width="1" fill="none" fill-rule="evenodd">
        <path d="M10.5,0 L21,5.60747665 L21,18.391204 L10.5,24 L0,18.391204 L0,5.60747665 L0.535,5.322 L0.698011305,5 L0.912,5.12 L10.5,0 Z M1.502,7.218 L1.50209071,17.5072018 L10,22.045 L10,12 L1.502,7.218 Z M19.5,6.654 L10.993,11.441 L11.4796499,11.4411899 L11.479,21.788 L19.5005702,17.5072018 L19.5,6.654 Z M19,9 L19,16.9681465 L12.2673961,20.3422426 L12.2673961,12.630389 L19,9 Z M10.5,1.68752063 L2.449,5.986 L10,10.2379548 L18.039,5.712 L10.5,1.68752063 Z" id="组件" fill="#54FCE2" fill-rule="nonzero"></path>
    </g>
</svg>