<?xml version="1.0" encoding="UTF-8"?>
<svg width="21px" height="21px" viewBox="0 0 21 21" version="1.1" xmlns="http://www.w3.org/2000/svg" xmlns:xlink="http://www.w3.org/1999/xlink">
    <title>虚拟机</title>
    <g id="页面-1" stroke="none" stroke-width="1" fill="none" fill-rule="evenodd">
        <path d="M19.4864915,3.19789479 L13.5529827,0.152280696 C13.91193,0.538421062 14.1403511,1.05508772 14.1403511,1.63157898 L14.1403511,19.035088 C14.1403511,19.6115793 13.91193,20.1282459 13.5529827,20.5143863 L19.4864915,17.4633336 C20.2105745,17.0889797 20.6656997,16.3423227 20.666667,15.5271932 L20.666667,5.13403516 C20.666667,4.31824567 20.2098249,3.57315793 19.4864915,3.19789479 L19.4864915,3.19789479 Z M3.26315795,0 L2.17543862,0 C0.973508771,0 -4.54747351e-13,0.973508771 -4.54747351e-13,2.17543862 L-4.54747351e-13,18.4912284 C-4.54747351e-13,19.6931582 0.973508797,20.666667 2.17543862,20.666667 L3.26315795,20.666667 C4.4650878,20.666667 5.43859657,19.6931582 5.43859657,18.4912284 L5.43859657,2.17543862 C5.43859657,0.973508771 4.46508778,0 3.26315795,0 Z M2.99122811,17.9473687 L2.44736846,17.9473687 C1.99596494,17.9473687 1.63157898,17.5829828 1.63157898,17.1315792 C1.63157898,16.6801757 1.99596494,16.3157898 2.44736846,16.3157898 L2.99122811,16.3157898 C3.44263164,16.3157898 3.8070176,16.6801757 3.8070176,17.1315792 C3.8070176,17.5829828 3.44263164,17.9473687 2.99122811,17.9473687 Z M2.99122811,14.6842108 L2.44736846,14.6842108 C1.99596494,14.6842108 1.63157898,14.3198248 1.63157898,13.8684213 C1.63157898,13.4170178 1.99596494,13.0526318 2.44736846,13.0526318 L2.99122811,13.0526318 C3.44263164,13.0526318 3.8070176,13.4170178 3.8070176,13.8684213 C3.8070176,14.3198248 3.44263164,14.6842108 2.99122811,14.6842108 Z M2.99122811,11.4210528 L2.44736846,11.4210528 C1.99596494,11.4210528 1.63157898,11.0566669 1.63157898,10.6052633 C1.63157898,10.1538598 1.99596494,9.78947385 2.44736846,9.78947385 L2.99122811,9.78947385 C3.44263164,9.78947385 3.8070176,10.1538598 3.8070176,10.6052633 C3.8070176,11.0566669 3.44263164,11.4210528 2.99122811,11.4210528 Z M4.20947376,5.68333342 L3.68736848,5.68333342 L3.68736848,4.18771935 C3.68736848,4.05175445 3.69280707,3.87771935 3.70912286,3.66561408 L3.69824566,3.66561408 C3.66561408,3.82333339 3.63842109,3.9321053 3.62210532,3.9810527 L3.01298249,5.68333342 L2.59421057,5.68333342 L1.97964915,3.99736849 C1.96333336,3.95929832 1.93614037,3.84508779 1.90350879,3.66561408 L1.88175441,3.66561408 C1.8980702,3.87228076 1.90350879,4.07894741 1.90350879,4.2910527 L1.90350879,5.68877201 L1.43035088,5.68877201 L1.43035088,3.21964917 L2.197193,3.21964917 L2.73017548,4.70982462 C2.77368426,4.83491235 2.80631584,4.94912288 2.82263163,5.05789482 L2.8335088,5.05789482 C2.86614038,4.92192992 2.89877196,4.80771939 2.93684216,4.70982462 L3.4698246,3.21964917 L4.21491234,3.21964917 L4.21491234,5.68333342 L4.20947376,5.68333342 Z M10.3333335,0 L9.24561417,0 C8.04368432,0 7.07017555,0.973508797 7.07017555,2.17543862 L7.07017555,18.4912284 C7.07017555,19.6931582 8.04368435,20.666667 9.24561417,20.666667 L10.3333335,20.666667 C11.5352634,20.666667 12.5087721,19.6931582 12.5087721,18.4912284 L12.5087721,2.17543862 C12.5087721,0.973508771 11.5352633,0 10.3333335,0 Z M10.0614037,17.9473687 L9.51754401,17.9473687 C9.06614049,17.9473687 8.70175452,17.5829828 8.70175452,17.1315792 C8.70175452,16.6801757 9.06614049,16.3157898 9.51754401,16.3157898 L10.0614037,16.3157898 C10.5128072,16.3157898 10.8771931,16.6801757 10.8771931,17.1315792 C10.8771931,17.5829828 10.5128072,17.9473687 10.0614037,17.9473687 L10.0614037,17.9473687 Z M10.0614037,14.6842108 L9.51754401,14.6842108 C9.06614049,14.6842108 8.70175452,14.3198248 8.70175452,13.8684213 C8.70175452,13.4170178 9.06614049,13.0526318 9.51754401,13.0526318 L10.0614037,13.0526318 C10.5128072,13.0526318 10.8771931,13.4170178 10.8771931,13.8684213 C10.8771931,14.3198248 10.5128072,14.6842108 10.0614037,14.6842108 L10.0614037,14.6842108 Z M10.0614037,11.4210528 L9.51754401,11.4210528 C9.06614049,11.4210528 8.70175452,11.0566669 8.70175452,10.6052633 C8.70175452,10.1538598 9.06614049,9.78947385 9.51754401,9.78947385 L10.0614037,9.78947385 C10.5128072,9.78947385 10.8771931,10.1538598 10.8771931,10.6052633 C10.8771931,11.0566669 10.5128072,11.4210528 10.0614037,11.4210528 L10.0614037,11.4210528 Z M10.219123,5.68333342 L9.62631595,5.68333342 L8.77789489,3.21421058 L9.34350891,3.21421058 L9.87649139,4.96000008 C9.90368438,5.04701762 9.92000017,5.12859657 9.92543876,5.20473693 L9.93631596,5.20473693 C9.94719316,5.12859657 9.96350895,5.04157903 9.99070192,4.95456147 L10.5236844,3.21421058 L11.0729826,3.21421058 L10.219123,5.68333342 L10.219123,5.68333342 Z" id="虚拟机" fill="#55FDE2" fill-rule="nonzero"></path>
    </g>
</svg>