<?xml version="1.0" encoding="UTF-8"?>
<svg width="28px" height="18px" viewBox="0 0 28 18" version="1.1" xmlns="http://www.w3.org/2000/svg" xmlns:xlink="http://www.w3.org/1999/xlink">
    <title>路由器</title>
    <g id="页面-1" stroke="none" stroke-width="1" fill="none" fill-rule="evenodd">
        <path d="M27.5625,9.625 L13.125,9.625 C12.6410156,9.625 12.25,9.23398437 12.25,8.75 L12.25,0.875 C12.25,0.391015625 11.8589844,0 11.375,0 C11.134375,0 10.915625,0.0984375 10.7570312,0.25703125 C10.5984375,0.415625 10.5,0.634375 10.5,0.875 L10.5,8.75 C10.5,9.23398437 10.1089844,9.625 9.625,9.625 C9.384375,9.625 9.165625,9.5265625 9.00703125,9.36796875 C8.8484375,9.209375 8.75,8.990625 8.75,8.75 L8.75,0.875 C8.75,0.391015625 8.35898438,0 7.875,0 C7.634375,0 7.415625,0.0984375 7.25703125,0.25703125 C7.0984375,0.415625 7,0.634375 7,0.875 L7,8.75 C7,9.23398437 6.60898437,9.625 6.125,9.625 C5.884375,9.625 5.665625,9.5265625 5.50703125,9.36796875 C5.3484375,9.209375 5.25,8.990625 5.25,8.75 L5.25,0.875 C5.25,0.391015625 4.85898437,0 4.375,0 C4.134375,0 3.915625,0.0984375 3.75703125,0.25703125 C3.5984375,0.415625 3.5,0.634375 3.5,0.875 L3.5,8.75 C3.5,9.23398437 3.10898437,9.625 2.625,9.625 L0.4375,9.625 C0.196875,9.625 0,9.821875 0,10.0625 L0,17.0625 C0,17.303125 0.196875,17.5 0.4375,17.5 L27.5625,17.5 C27.803125,17.5 28,17.303125 28,17.0625 L28,10.0625 C28,9.821875 27.803125,9.625 27.5625,9.625 Z M3.5,14.4375 L3.5,12.6875 L13.125,12.6875 L13.125,14.4375 L3.5,14.4375 Z M15.3125,13.5625 C15.3125,13.0785156 15.7035156,12.6875 16.1875,12.6875 C16.6714844,12.6875 17.0625,13.0785156 17.0625,13.5625 C17.0625,14.0464844 16.6714844,14.4375 16.1875,14.4375 C15.7035156,14.4375 15.3125,14.0464844 15.3125,13.5625 Z M18.375,13.5625 C18.375,12.8378906 18.9628906,12.25 19.6875,12.25 C20.4121094,12.25 21,12.8378906 21,13.5625 C21,14.2871094 20.4121094,14.875 19.6875,14.875 C18.9628906,14.875 18.375,14.2871094 18.375,13.5625 Z M23.1875,14.875 C22.4628906,14.875 21.875,14.2871094 21.875,13.5625 C21.875,12.8378906 22.4628906,12.25 23.1875,12.25 C23.9121094,12.25 24.5,12.8378906 24.5,13.5625 C24.5,14.2871094 23.9121094,14.875 23.1875,14.875 Z" id="路由器" fill="#55FDE2" fill-rule="nonzero"></path>
    </g>
</svg>