<?xml version="1.0" encoding="UTF-8"?>
<svg width="24px" height="23px" viewBox="0 0 24 23" version="1.1" xmlns="http://www.w3.org/2000/svg" xmlns:xlink="http://www.w3.org/1999/xlink">
    <title>防火墙</title>
    <g id="页面-1" stroke="none" stroke-width="1" fill="none" fill-rule="evenodd">
        <g id="防火墙" transform="translate(1.000000, 0.000000)" fill-rule="nonzero">
            <polygon id="路径" fill="#54FCE2" points="17.7993304 22.8100446 0.857366071 16.9060268 0.857366071 2.73638393 17.7993304 7.66495536"></polygon>
            <polygon id="路径" fill="#54FCE2" points="17.7993304 22.8100446 21.9064732 18.4462054 21.9064732 4.32790179 17.7993304 7.66495536"></polygon>
            <polygon id="路径" fill="#54FCE2" points="0.857366071 2.73638393 17.7993304 7.66495536 21.9064732 4.32790179 5.87834821 0.308035714"></polygon>
            <path d="M21.9064732,8.80982143 L21.9064732,8.15011161 L17.7993304,11.4794643 L17.7993304,11.5487723 L11.5282366,9.62868304 L11.5282366,6.19665179 L11.0148438,6.19665179 L11.0148438,9.47209821 L4.28939732,7.41339286 L4.28939732,3.96595982 L3.77600446,3.96595982 L3.77600446,7.25424107 L0.857366071,6.3609375 L0.857366071,6.89743304 L6.85636161,8.73537946 L6.85636161,11.6103795 L0.857366071,9.68772321 L0.857366071,10.2267857 L3.77600446,11.1611607 L3.77600446,14.2902902 L0.857366071,13.3559152 L0.857366071,13.8949777 L6.85636161,15.8176339 L6.85636161,18.9981027 L7.36975446,19.1777902 L7.36975446,15.9819196 L14.5572545,18.2844866 L14.5572545,21.6805804 L15.0706473,21.8602679 L15.0706473,18.4487723 L17.7993304,19.3241071 L17.7993304,19.3831473 L21.9064732,15.4351562 L21.9064732,14.7010045 L17.7993304,18.6489955 L17.7993304,18.7850446 L11.5282366,16.7751116 L11.5282366,13.6459821 L17.7993304,15.6559152 L17.7993304,15.6918527 L21.9064732,12.0518973 L21.9064732,11.35625 L17.7993304,14.9962054 L17.7993304,15.1194196 L15.0706473,14.2440848 L15.0706473,11.2484375 L17.7993304,12.0827009 L17.7993304,12.1366071 L21.9064732,8.80982143 Z M11.0148438,16.6108259 L4.28939732,14.4545759 L4.28939732,11.3280134 L11.0148438,13.4842634 L11.0148438,16.6108259 Z M14.5572545,14.0797991 L7.36975446,11.7772321 L7.36975446,8.89196429 L14.5572545,11.0918527 L14.5572545,14.0797991 L14.5572545,14.0797991 Z" id="形状" fill="#001227"></path>
            <polygon id="路径" fill="#54FCE2" points="0.0359375 2.60803571 17.8917411 7.62901786 22.7587054 4.3125 5.87834821 -1.23961447e-13"></polygon>
            <polygon id="路径" fill="#2FBDA7" points="-2.97136053e-14 3.15736607 -2.97136053e-14 2.60803571 17.8917411 7.62901786 17.8917411 8.265625"></polygon>
            <polygon id="路径" fill="#2FBDA7" points="22.7587054 4.3125 22.7587054 4.9234375 17.8917411 8.265625 17.8917411 7.62901786"></polygon>
        </g>
    </g>
</svg>