<?xml version="1.0" standalone="no"?><!DOCTYPE svg PUBLIC "-//W3C//DTD SVG 1.1//EN" "http://www.w3.org/Graphics/SVG/1.1/DTD/svg11.dtd"><svg t="1589449435058" class="icon" viewBox="0 0 1024 1024" version="1.1" xmlns="http://www.w3.org/2000/svg" p-id="1938" width="48" height="48" xmlns:xlink="http://www.w3.org/1999/xlink"><defs><style type="text/css"></style></defs><path d="M732.904508 838.91702l-1.104313-0.060236c-102.942118-14.97851-222.930824-59.492392-337.819608-125.329568C144.566312 570.62902-7.989609 367.736471 53.952351 261.300706c30.579451-52.60549 106.817255-74.229961 214.718745-60.777412 105.692863 13.111216 229.938196 58.227451 349.886746 126.955922 249.374118 142.938353 401.970196 345.810824 340.028235 452.246588a104.06651 104.06651 0 0 1-25.21851 28.973176 7.388863 7.388863 0 1 1-9.316392-11.504941 89.46949 89.46949 0 0 0 21.684706-24.877176c57.785725-99.388235-92.320627-293.24549-334.627137-432.128-118.261961-67.764706-240.539608-112.198275-344.304942-125.088628-101.516549-12.609255-172.594196 6.384941-200.001255 53.50902C9.016822 368.037647 159.103096 561.854745 401.429685 700.737255c113.302588 64.953725 231.424 108.784941 332.53898 123.482353a7.388863 7.388863 0 0 1 6.485333 7.850667 7.408941 7.408941 0 0 1-7.54949 6.826666z" fill="#2F54EB" p-id="1939"></path><path d="M209.62043 838.91702c-76.699608 0-131.031843-22.046118-155.688157-64.090353-61.901804-105.532235 90.654118-306.718118 340.048314-448.451765 119.968627-68.166275 244.234039-112.90102 349.906823-125.911843 107.881412-13.271843 184.139294 8.091608 214.698667 60.235294 61.901804 105.552314-90.634039 306.738196-340.028235 448.471843-119.968627 68.186353-244.213961 112.880941-349.906824 125.911843-20.881569 2.570039-40.618667 3.83498-59.030588 3.834981z m593.779451-627.732079c-17.909961 0-37.145098 1.224784-57.625098 3.774745-103.80549 12.810039-226.083137 56.821961-344.345098 124.044549C159.103096 476.742275 8.996744 668.953098 66.802547 767.518118c27.427137 46.762667 98.585098 65.616314 199.981177 53.067294 103.80549-12.810039 226.083137-56.821961 344.345098-124.044549C853.45541 558.84298 1003.561763 366.632157 945.755959 268.047059c-21.88549-37.305725-71.539451-56.821961-142.356078-56.821961z" fill="#2F54EB" p-id="1940"></path><path d="M507.504038 1022.433882C382.656351 1022.433882 281.099645 793.098039 281.099645 511.196863 281.099645 229.295686 382.656351 0 507.504038 0 632.331645 0 733.868273 229.335843 733.868273 511.196863c0 281.901176-101.556706 511.23702-226.384314 511.237019z m266.661647-131.533804a10.842353 10.842353 0 0 1-7.730196-18.492235l45.618196-45.317019-45.618196-45.377255a10.782118 10.782118 0 0 1 4.778666-18.391844 10.942745 10.942745 0 0 1 10.661647 3.112157l53.328314 53.027138a10.782118 10.782118 0 0 1 0 15.319843l-53.328314 53.007059a11.043137 11.043137 0 0 1-7.710117 3.112156zM507.504038 14.536784c-116.575373 0-211.425882 222.810353-211.425883 496.680157 0 273.869804 94.85051 496.680157 211.425883 496.680157 116.555294 0 211.425882-222.810353 211.425882-496.680157 0-273.869804-94.870588-496.680157-211.425882-496.680157z" fill="#2F54EB" p-id="1941"></path><path d="M628.075018 550.550588a10.962824 10.962824 0 0 1-3.694431-0.602353l-124.787451-40.478117a11.00298 11.00298 0 0 1-7.42902-7.81051l-25.579921-108.483765a10.762039 10.762039 0 0 1 8.633725-12.810039c6.103843-1.204706 12.127373 2.409412 13.552941 8.151843l24.19451 102.600784 118.784 38.550589a10.681725 10.681725 0 0 1 7.529412 11.906509 11.183686 11.183686 0 0 1-11.203765 8.954981z" fill="#2F54EB" p-id="1942"></path><path d="M450.400979 602.955294a10.762039 10.762039 0 0 1-9.195922-16.183216l55.898353-93.605647a10.440784 10.440784 0 0 1 3.614118-3.614117l69.069804-42.285177a10.802196 10.802196 0 0 1 16.384 8.83451 10.721882 10.721882 0 0 1-5.12 9.436863l-66.82102 40.879686-54.553098 91.316706a10.822275 10.822275 0 0 1-9.276235 5.220392z" fill="#2F54EB" p-id="1943"></path><path d="M508.7489 511.196863h-0.240941l-85.032157-2.248785a10.219922 10.219922 0 0 1-7.469176-3.714509 12.810039 12.810039 0 0 1-2.95153-8.553412 12.227765 12.227765 0 0 1 10.942746-11.685647l85.012078 2.268863c5.903059 0.080314 10.641569 5.50149 10.581333 12.127372-0.080314 6.605804-4.919216 11.90651-10.842353 11.826196z" fill="#2F54EB" p-id="1944"></path><path d="M443.654626 370.507294c0 9.356549 5.079843 18.010353 13.312 22.688628 8.232157 4.698353 18.391843 4.698353 26.644078 0 8.232157-4.678275 13.312-13.332078 13.312-22.688628 0-14.476549-11.926588-26.222431-26.644078-26.222431-14.697412 0-26.624 11.745882-26.624 26.222431zM374.082861 494.451451c0 14.456471 11.926588 26.202353 26.644079 26.202353 14.697412 0 26.624-11.725804 26.624-26.202353 0-14.496627-11.926588-26.222431-26.624-26.222431-14.71749 0-26.644078 11.725804-26.644079 26.222431zM568.883802 446.564392c0 10.862431 8.934902 19.676863 19.97804 19.676863 11.023059 0 19.957961-8.814431 19.95796-19.676863 0-10.842353-8.934902-19.656784-19.95796-19.656784a19.817412 19.817412 0 0 0-19.97804 19.676863zM624.521136 556.072157c0 18.110745 14.918275 32.788078 33.310117 32.788078 18.371765 0 33.290039-14.677333 33.29004-32.788078 0-18.070588-14.918275-32.768-33.29004-32.768-18.391843 0-33.310118 14.677333-33.310117 32.768zM387.997214 624.278588c0 25.33898 20.881569 45.879216 46.622118 45.879216s46.602039-20.540235 46.602039-45.879216c0-25.33898-20.881569-45.879216-46.602039-45.879215-25.760627 0-46.622118 20.540235-46.622118 45.879215zM479.635175 498.105725c0 14.476549 11.926588 26.222431 26.624 26.222432 14.71749 0 26.644078-11.745882 26.644078-26.222432 0-14.476549-11.926588-26.222431-26.644078-26.222431-14.697412 0-26.624 11.745882-26.624 26.222431z" fill="#6EEDD8" p-id="1945"></path></svg>